{
  "accessors": [
    {
      "bufferView": 2,
      "componentType": 5126,
      "count": 896,
      "max": [
        0.33513399958610535,
        0.10932499915361404,
        2.33247709274292
      ],
      "min": [
        -0.6083430051803589,
        -0.10116899758577347,
        -2.336617946624756
      ],
      "type": "VEC3"
    },
    {
      "bufferView": 2,
      "byteOffset": 10752,
      "componentType": 5126,
      "count": 896,
      "max": [
        0.9984467625617981,
        0.9988231062889099,
        0.9894247651100159
      ],
      "min": [
        -0.998569905757904,
        -0.9996921420097351,
        -0.9894237518310547
      ],
      "type": "VEC3"
    },
    {
      "bufferView": 3,
      "componentType": 5126,
      "count": 896,
      "max": [
        0.9964366555213928,
        0.9906027317047119,
        0.9976312518119812,
        1.0
      ],
      "min": [
        -0.9984027147293091,
        -0.9973195195198059,
        -0.997631311416626,
        -1.0
      ],
      "type": "VEC4"
    },
    {
      "bufferView": 1,
      "componentType": 5126,
      "count": 896,
      "max": [
        1.0,
        0.9668480157852173
      ],
      "min": [
        0.0,
        0.0
      ],
      "type": "VEC2"
    },
    {
      "bufferView": 0,
      "componentType": 5125,
      "count": 3540,
      "type": "SCALAR"
    }
  ],
  "asset": {
    "extras": {
      "author": "Asylum Nox (https://sketchfab.com/peter.pottiez)",
      "license": "CC-BY-4.0 (http://creativecommons.org/licenses/by/4.0/)",
      "source": "https://sketchfab.com/3d-models/bow-of-the-pack-hunter-8e27516a119941218def8076850800ec",
      "title": "Bow of the Pack Hunter"
    },
    "generator": "Sketchfab-15.11.0",
    "version": "2.0"
  },
  "bufferViews": [
    {
      "buffer": 0,
      "byteLength": 14160,
      "name": "floatBufferViews",
      "target": 34963
    },
    {
      "buffer": 0,
      "byteLength": 7168,
      "byteOffset": 14160,
      "byteStride": 8,
      "name": "floatBufferViews",
      "target": 34962
    },
    {
      "buffer": 0,
      "byteLength": 21504,
      "byteOffset": 21328,
      "byteStride": 12,
      "name": "floatBufferViews",
      "target": 34962
    },
    {
      "buffer": 0,
      "byteLength": 14336,
      "byteOffset": 42832,
      "byteStride": 16,
      "name": "floatBufferViews",
      "target": 34962
    }
  ],
  "buffers": [
    {
      "byteLength": 57168,
      "uri": "gltf.bin"
    }
  ],
  "images": [
    {
      "uri": "textures/Material.001.00_tx_w_nrd_wntrbt.dds_baseColor.jpeg"
    },
    {
      "uri": "textures/Material.001.00_tx_w_nrd_wntrbt.dds_metallicRoughness.png"
    },
    {
      "uri": "textures/Material.001.00_tx_w_nrd_wntrbt.dds_normal.png"
    }
  ],
  "materials": [
    {
      "doubleSided": true,
      "name": "Material.001.00_tx_w_nrd_wntrbt.dds",
      "normalTexture": {
        "index": 2
      },
      "pbrMetallicRoughness": {
        "baseColorTexture": {
          "index": 0
        },
        "metallicRoughnessTexture": {
          "index": 1
        }
      }
    }
  ],
  "meshes": [
    {
      "name": "defaultMaterial",
      "primitives": [
        {
          "attributes": {
            "NORMAL": 1,
            "POSITION": 0,
            "TANGENT": 2,
            "TEXCOORD_0": 3
          },
          "indices": 4,
          "material": 0,
          "mode": 4
        }
      ]
    }
  ],
  "nodes": [
    {
      "children": [
        1
      ],
      "matrix": [
        1.0,
        0.0,
        0.0,
        0.0,
        0.0,
        2.220446049250313e-16,
        -1.0,
        0.0,
        0.0,
        1.0,
        2.220446049250313e-16,
        0.0,
        0.0,
        0.0,
        0.0,
        1.0
      ],
      "name": "Sketchfab_model"
    },
    {
      "children": [
        2
      ],
      "matrix": [
        1.0,
        0.0,
        0.0,
        0.0,
        0.0,
        -4.371139006309477e-08,
        0.999999999999999,
        0.0,
        0.0,
        -0.999999999999999,
        -4.371139006309477e-08,
        0.0,
        0.0,
        0.0,
        0.0,
        1.0
      ],
      "name": "Collada visual scene group"
    },
    {
      "children": [
        3
      ],
      "name": "defaultobject"
    },
    {
      "mesh": 0,
      "name": "defaultMaterial"
    }
  ],
  "samplers": [
    {
      "magFilter": 9729,
      "minFilter": 9987,
      "wrapS": 10497,
      "wrapT": 10497
    }
  ],
  "scene": 0,
  "scenes": [
    {
      "name": "Sketchfab_Scene",
      "nodes": [
        0
      ]
    }
  ],
  "textures": [
    {
      "sampler": 0,
      "source": 0
    },
    {
      "sampler": 0,
      "source": 1
    },
    {
      "sampler": 0,
      "source": 2
    }
  ]
}
