{
  "accessors": [
    {
      "bufferView": 2,
      "componentType": 5126,
      "count": 24,
      "max": [
        25.390417098999023,
        46.411869049072266,
        17.97454071044922
      ],
      "min": [
        -24.609582901000977,
        -3.588132858276367,
        -32.02545928955078
      ],
      "type": "VEC3"
    },
    {
      "bufferView": 2,
      "byteOffset": 288,
      "componentType": 5126,
      "count": 24,
      "max": [
        1.0,
        1.0,
        1.0
      ],
      "min": [
        -1.0,
        -1.0,
        -1.0
      ],
      "type": "VEC3"
    },
    {
      "bufferView": 1,
      "componentType": 5126,
      "count": 24,
      "max": [
        0.5,
        1.0
      ],
      "min": [
        0.0,
        0.75
      ],
      "type": "VEC2"
    },
    {
      "bufferView": 1,
      "byteOffset": 192,
      "componentType": 5126,
      "count": 24,
      "max": [
        0.5,
        1.0
      ],
      "min": [
        0.0,
        0.75
      ],
      "type": "VEC2"
    },
    {
      "bufferView": 1,
      "byteOffset": 384,
      "componentType": 5126,
      "count": 24,
      "max": [
        0.5,
        1.0
      ],
      "min": [
        0.0,
        0.75
      ],
      "type": "VEC2"
    },
    {
      "bufferView": 1,
      "byteOffset": 576,
      "componentType": 5126,
      "count": 24,
      "max": [
        0.5,
        1.0
      ],
      "min": [
        0.0,
        0.75
      ],
      "type": "VEC2"
    },
    {
      "bufferView": 1,
      "byteOffset": 768,
      "componentType": 5126,
      "count": 24,
      "max": [
        0.5,
        1.0
      ],
      "min": [
        0.0,
        0.75
      ],
      "type": "VEC2"
    },
    {
      "bufferView": 1,
      "byteOffset": 960,
      "componentType": 5126,
      "count": 24,
      "max": [
        0.5,
        1.0
      ],
      "min": [
        0.0,
        0.75
      ],
      "type": "VEC2"
    },
    {
      "bufferView": 1,
      "byteOffset": 1152,
      "componentType": 5126,
      "count": 24,
      "max": [
        0.5,
        1.0
      ],
      "min": [
        0.0,
        0.75
      ],
      "type": "VEC2"
    },
    {
      "bufferView": 1,
      "byteOffset": 1344,
      "componentType": 5126,
      "count": 24,
      "max": [
        0.5,
        1.0
      ],
      "min": [
        0.0,
        0.75
      ],
      "type": "VEC2"
    },
    {
      "bufferView": 1,
      "byteOffset": 1536,
      "componentType": 5126,
      "count": 24,
      "max": [
        0.5,
        1.0
      ],
      "min": [
        0.0,
        0.75
      ],
      "type": "VEC2"
    },
    {
      "bufferView": 1,
      "byteOffset": 1728,
      "componentType": 5126,
      "count": 24,
      "max": [
        0.5,
        1.0
      ],
      "min": [
        0.0,
        0.75
      ],
      "type": "VEC2"
    },
    {
      "bufferView": 0,
      "componentType": 5125,
      "count": 36,
      "type": "SCALAR"
    },
    {
      "bufferView": 2,
      "byteOffset": 576,
      "componentType": 5126,
      "count": 24,
      "max": [
        25.0,
        150.0,
        12.5
      ],
      "min": [
        -25.0,
        68.75,
        -12.5
      ],
      "type": "VEC3"
    },
    {
      "bufferView": 2,
      "byteOffset": 864,
      "componentType": 5126,
      "count": 24,
      "max": [
        1.0,
        1.0,
        1.0
      ],
      "min": [
        -1.0,
        -1.0,
        -1.0
      ],
      "type": "VEC3"
    },
    {
      "bufferView": 1,
      "byteOffset": 1920,
      "componentType": 5126,
      "count": 24,
      "max": [
        0.375,
        0.75
      ],
      "min": [
        0.0,
        0.484375
      ],
      "type": "VEC2"
    },
    {
      "bufferView": 1,
      "byteOffset": 2112,
      "componentType": 5126,
      "count": 24,
      "max": [
        0.375,
        0.75
      ],
      "min": [
        0.0,
        0.484375
      ],
      "type": "VEC2"
    },
    {
      "bufferView": 1,
      "byteOffset": 2304,
      "componentType": 5126,
      "count": 24,
      "max": [
        0.375,
        0.75
      ],
      "min": [
        0.0,
        0.484375
      ],
      "type": "VEC2"
    },
    {
      "bufferView": 1,
      "byteOffset": 2496,
      "componentType": 5126,
      "count": 24,
      "max": [
        0.375,
        0.75
      ],
      "min": [
        0.0,
        0.484375
      ],
      "type": "VEC2"
    },
    {
      "bufferView": 1,
      "byteOffset": 2688,
      "componentType": 5126,
      "count": 24,
      "max": [
        0.375,
        0.75
      ],
      "min": [
        0.0,
        0.484375
      ],
      "type": "VEC2"
    },
    {
      "bufferView": 1,
      "byteOffset": 2880,
      "componentType": 5126,
      "count": 24,
      "max": [
        0.375,
        0.75
      ],
      "min": [
        0.0,
        0.484375
      ],
      "type": "VEC2"
    },
    {
      "bufferView": 1,
      "byteOffset": 3072,
      "componentType": 5126,
      "count": 24,
      "max": [
        0.375,
        0.75
      ],
      "min": [
        0.0,
        0.484375
      ],
      "type": "VEC2"
    },
    {
      "bufferView": 1,
      "byteOffset": 3264,
      "componentType": 5126,
      "count": 24,
      "max": [
        0.375,
        0.75
      ],
      "min": [
        0.0,
        0.484375
      ],
      "type": "VEC2"
    },
    {
      "bufferView": 1,
      "byteOffset": 3456,
      "componentType": 5126,
      "count": 24,
      "max": [
        0.375,
        0.75
      ],
      "min": [
        0.0,
        0.484375
      ],
      "type": "VEC2"
    },
    {
      "bufferView": 1,
      "byteOffset": 3648,
      "componentType": 5126,
      "count": 24,
      "max": [
        0.375,
        0.75
      ],
      "min": [
        0.0,
        0.484375
      ],
      "type": "VEC2"
    },
    {
      "bufferView": 0,
      "byteOffset": 144,
      "componentType": 5125,
      "count": 36,
      "type": "SCALAR"
    },
    {
      "bufferView": 2,
      "byteOffset": 1152,
      "componentType": 5126,
      "count": 24,
      "max": [
        6.25,
        62.5,
        6.25
      ],
      "min": [
        -6.25,
        -6.25,
        -6.25
      ],
      "type": "VEC3"
    },
    {
      "bufferView": 2,
      "byteOffset": 1440,
      "componentType": 5126,
      "count": 24,
      "max": [
        1.0,
        1.0,
        1.0
      ],
      "min": [
        -1.0,
        -1.0,
        -1.0
      ],
      "type": "VEC3"
    },
    {
      "bufferView": 1,
      "byteOffset": 3840,
      "componentType": 5126,
      "count": 24,
      "max": [
        0.53125,
        0.421875
      ],
      "min": [
        0.40625,
        0.21875
      ],
      "type": "VEC2"
    },
    {
      "bufferView": 1,
      "byteOffset": 4032,
      "componentType": 5126,
      "count": 24,
      "max": [
        0.53125,
        0.421875
      ],
      "min": [
        0.40625,
        0.21875
      ],
      "type": "VEC2"
    },
    {
      "bufferView": 1,
      "byteOffset": 4224,
      "componentType": 5126,
      "count": 24,
      "max": [
        0.53125,
        0.421875
      ],
      "min": [
        0.40625,
        0.21875
      ],
      "type": "VEC2"
    },
    {
      "bufferView": 1,
      "byteOffset": 4416,
      "componentType": 5126,
      "count": 24,
      "max": [
        0.53125,
        0.421875
      ],
      "min": [
        0.40625,
        0.21875
      ],
      "type": "VEC2"
    },
    {
      "bufferView": 1,
      "byteOffset": 4608,
      "componentType": 5126,
      "count": 24,
      "max": [
        0.53125,
        0.421875
      ],
      "min": [
        0.40625,
        0.21875
      ],
      "type": "VEC2"
    },
    {
      "bufferView": 1,
      "byteOffset": 4800,
      "componentType": 5126,
      "count": 24,
      "max": [
        0.53125,
        0.421875
      ],
      "min": [
        0.40625,
        0.21875
      ],
      "type": "VEC2"
    },
    {
      "bufferView": 1,
      "byteOffset": 4992,
      "componentType": 5126,
      "count": 24,
      "max": [
        0.53125,
        0.421875
      ],
      "min": [
        0.40625,
        0.21875
      ],
      "type": "VEC2"
    },
    {
      "bufferView": 1,
      "byteOffset": 5184,
      "componentType": 5126,
      "count": 24,
      "max": [
        0.53125,
        0.421875
      ],
      "min": [
        0.40625,
        0.21875
      ],
      "type": "VEC2"
    },
    {
      "bufferView": 1,
      "byteOffset": 5376,
      "componentType": 5126,
      "count": 24,
      "max": [
        0.53125,
        0.421875
      ],
      "min": [
        0.40625,
        0.21875
      ],
      "type": "VEC2"
    },
    {
      "bufferView": 1,
      "byteOffset": 5568,
      "componentType": 5126,
      "count": 24,
      "max": [
        0.53125,
        0.421875
      ],
      "min": [
        0.40625,
        0.21875
      ],
      "type": "VEC2"
    },
    {
      "bufferView": 0,
      "byteOffset": 288,
      "componentType": 5125,
      "count": 36,
      "type": "SCALAR"
    },
    {
      "bufferView": 2,
      "byteOffset": 1728,
      "componentType": 5126,
      "count": 24,
      "max": [
        4.368948459625244,
        16.93189811706543,
        25.797576904296875
      ],
      "min": [
        -20.631052017211914,
        -26.81810188293457,
        0.7975766062736511
      ],
      "type": "VEC3"
    },
    {
      "bufferView": 2,
      "byteOffset": 2016,
      "componentType": 5126,
      "count": 24,
      "max": [
        1.0,
        1.0,
        1.0
      ],
      "min": [
        -1.0,
        -1.0,
        -1.0
      ],
      "type": "VEC3"
    },
    {
      "bufferView": 1,
      "byteOffset": 5760,
      "componentType": 5126,
      "count": 24,
      "max": [
        0.25,
        0.484375
      ],
      "min": [
        0.0,
        0.3125
      ],
      "type": "VEC2"
    },
    {
      "bufferView": 1,
      "byteOffset": 5952,
      "componentType": 5126,
      "count": 24,
      "max": [
        0.25,
        0.484375
      ],
      "min": [
        0.0,
        0.3125
      ],
      "type": "VEC2"
    },
    {
      "bufferView": 1,
      "byteOffset": 6144,
      "componentType": 5126,
      "count": 24,
      "max": [
        0.25,
        0.484375
      ],
      "min": [
        0.0,
        0.3125
      ],
      "type": "VEC2"
    },
    {
      "bufferView": 1,
      "byteOffset": 6336,
      "componentType": 5126,
      "count": 24,
      "max": [
        0.25,
        0.484375
      ],
      "min": [
        0.0,
        0.3125
      ],
      "type": "VEC2"
    },
    {
      "bufferView": 1,
      "byteOffset": 6528,
      "componentType": 5126,
      "count": 24,
      "max": [
        0.25,
        0.484375
      ],
      "min": [
        0.0,
        0.3125
      ],
      "type": "VEC2"
    },
    {
      "bufferView": 1,
      "byteOffset": 6720,
      "componentType": 5126,
      "count": 24,
      "max": [
        0.25,
        0.484375
      ],
      "min": [
        0.0,
        0.3125
      ],
      "type": "VEC2"
    },
    {
      "bufferView": 1,
      "byteOffset": 6912,
      "componentType": 5126,
      "count": 24,
      "max": [
        0.25,
        0.484375
      ],
      "min": [
        0.0,
        0.3125
      ],
      "type": "VEC2"
    },
    {
      "bufferView": 1,
      "byteOffset": 7104,
      "componentType": 5126,
      "count": 24,
      "max": [
        0.25,
        0.484375
      ],
      "min": [
        0.0,
        0.3125
      ],
      "type": "VEC2"
    },
    {
      "bufferView": 1,
      "byteOffset": 7296,
      "componentType": 5126,
      "count": 24,
      "max": [
        0.25,
        0.484375
      ],
      "min": [
        0.0,
        0.3125
      ],
      "type": "VEC2"
    },
    {
      "bufferView": 1,
      "byteOffset": 7488,
      "componentType": 5126,
      "count": 24,
      "max": [
        0.25,
        0.484375
      ],
      "min": [
        0.0,
        0.3125
      ],
      "type": "VEC2"
    },
    {
      "bufferView": 0,
      "byteOffset": 432,
      "componentType": 5125,
      "count": 36,
      "type": "SCALAR"
    },
    {
      "bufferView": 2,
      "byteOffset": 2304,
      "componentType": 5126,
      "count": 24,
      "max": [
        12.5,
        18.75,
        -6.25
      ],
      "min": [
        -12.5,
        -56.25,
        -31.25
      ],
      "type": "VEC3"
    },
    {
      "bufferView": 2,
      "byteOffset": 2592,
      "componentType": 5126,
      "count": 24,
      "max": [
        1.0,
        1.0,
        1.0
      ],
      "min": [
        -1.0,
        -1.0,
        -1.0
      ],
      "type": "VEC3"
    },
    {
      "bufferView": 1,
      "byteOffset": 7680,
      "componentType": 5126,
      "count": 24,
      "max": [
        0.625,
        0.75
      ],
      "min": [
        0.375,
        0.5
      ],
      "type": "VEC2"
    },
    {
      "bufferView": 1,
      "byteOffset": 7872,
      "componentType": 5126,
      "count": 24,
      "max": [
        0.625,
        0.75
      ],
      "min": [
        0.375,
        0.5
      ],
      "type": "VEC2"
    },
    {
      "bufferView": 1,
      "byteOffset": 8064,
      "componentType": 5126,
      "count": 24,
      "max": [
        0.625,
        0.75
      ],
      "min": [
        0.375,
        0.5
      ],
      "type": "VEC2"
    },
    {
      "bufferView": 1,
      "byteOffset": 8256,
      "componentType": 5126,
      "count": 24,
      "max": [
        0.625,
        0.75
      ],
      "min": [
        0.375,
        0.5
      ],
      "type": "VEC2"
    },
    {
      "bufferView": 1,
      "byteOffset": 8448,
      "componentType": 5126,
      "count": 24,
      "max": [
        0.625,
        0.75
      ],
      "min": [
        0.375,
        0.5
      ],
      "type": "VEC2"
    },
    {
      "bufferView": 1,
      "byteOffset": 8640,
      "componentType": 5126,
      "count": 24,
      "max": [
        0.625,
        0.75
      ],
      "min": [
        0.375,
        0.5
      ],
      "type": "VEC2"
    },
    {
      "bufferView": 1,
      "byteOffset": 8832,
      "componentType": 5126,
      "count": 24,
      "max": [
        0.625,
        0.75
      ],
      "min": [
        0.375,
        0.5
      ],
      "type": "VEC2"
    },
    {
      "bufferView": 1,
      "byteOffset": 9024,
      "componentType": 5126,
      "count": 24,
      "max": [
        0.625,
        0.75
      ],
      "min": [
        0.375,
        0.5
      ],
      "type": "VEC2"
    },
    {
      "bufferView": 1,
      "byteOffset": 9216,
      "componentType": 5126,
      "count": 24,
      "max": [
        0.625,
        0.75
      ],
      "min": [
        0.375,
        0.5
      ],
      "type": "VEC2"
    },
    {
      "bufferView": 1,
      "byteOffset": 9408,
      "componentType": 5126,
      "count": 24,
      "max": [
        0.625,
        0.75
      ],
      "min": [
        0.375,
        0.5
      ],
      "type": "VEC2"
    },
    {
      "bufferView": 0,
      "byteOffset": 576,
      "componentType": 5125,
      "count": 36,
      "type": "SCALAR"
    },
    {
      "bufferView": 2,
      "byteOffset": 2880,
      "componentType": 5126,
      "count": 24,
      "max": [
        50.0,
        -18.75,
        -12.5
      ],
      "min": [
        25.0,
        -106.25,
        -18.75
      ],
      "type": "VEC3"
    },
    {
      "bufferView": 2,
      "byteOffset": 3168,
      "componentType": 5126,
      "count": 24,
      "max": [
        1.0,
        1.0,
        1.0
      ],
      "min": [
        -1.0,
        -1.0,
        -1.0
      ],
      "type": "VEC3"
    },
    {
      "bufferView": 1,
      "byteOffset": 9600,
      "componentType": 5126,
      "count": 24,
      "max": [
        0.40625,
        0.421875
      ],
      "min": [
        0.25,
        0.1875
      ],
      "type": "VEC2"
    },
    {
      "bufferView": 1,
      "byteOffset": 9792,
      "componentType": 5126,
      "count": 24,
      "max": [
        0.40625,
        0.421875
      ],
      "min": [
        0.25,
        0.1875
      ],
      "type": "VEC2"
    },
    {
      "bufferView": 1,
      "byteOffset": 9984,
      "componentType": 5126,
      "count": 24,
      "max": [
        0.40625,
        0.421875
      ],
      "min": [
        0.25,
        0.1875
      ],
      "type": "VEC2"
    },
    {
      "bufferView": 1,
      "byteOffset": 10176,
      "componentType": 5126,
      "count": 24,
      "max": [
        0.40625,
        0.421875
      ],
      "min": [
        0.25,
        0.1875
      ],
      "type": "VEC2"
    },
    {
      "bufferView": 1,
      "byteOffset": 10368,
      "componentType": 5126,
      "count": 24,
      "max": [
        0.40625,
        0.421875
      ],
      "min": [
        0.25,
        0.1875
      ],
      "type": "VEC2"
    },
    {
      "bufferView": 1,
      "byteOffset": 10560,
      "componentType": 5126,
      "count": 24,
      "max": [
        0.40625,
        0.421875
      ],
      "min": [
        0.25,
        0.1875
      ],
      "type": "VEC2"
    },
    {
      "bufferView": 1,
      "byteOffset": 10752,
      "componentType": 5126,
      "count": 24,
      "max": [
        0.40625,
        0.421875
      ],
      "min": [
        0.25,
        0.1875
      ],
      "type": "VEC2"
    },
    {
      "bufferView": 1,
      "byteOffset": 10944,
      "componentType": 5126,
      "count": 24,
      "max": [
        0.40625,
        0.421875
      ],
      "min": [
        0.25,
        0.1875
      ],
      "type": "VEC2"
    },
    {
      "bufferView": 1,
      "byteOffset": 11136,
      "componentType": 5126,
      "count": 24,
      "max": [
        0.40625,
        0.421875
      ],
      "min": [
        0.25,
        0.1875
      ],
      "type": "VEC2"
    },
    {
      "bufferView": 1,
      "byteOffset": 11328,
      "componentType": 5126,
      "count": 24,
      "max": [
        0.40625,
        0.421875
      ],
      "min": [
        0.25,
        0.1875
      ],
      "type": "VEC2"
    },
    {
      "bufferView": 0,
      "byteOffset": 720,
      "componentType": 5125,
      "count": 36,
      "type": "SCALAR"
    },
    {
      "bufferView": 2,
      "byteOffset": 3456,
      "componentType": 5126,
      "count": 24,
      "max": [
        62.5,
        -12.5,
        -6.25
      ],
      "min": [
        12.5,
        -25.0,
        -25.0
      ],
      "type": "VEC3"
    },
    {
      "bufferView": 2,
      "byteOffset": 3744,
      "componentType": 5126,
      "count": 24,
      "max": [
        1.0,
        1.0,
        1.0
      ],
      "min": [
        -1.0,
        -1.0,
        -1.0
      ],
      "type": "VEC3"
    },
    {
      "bufferView": 1,
      "byteOffset": 11520,
      "componentType": 5126,
      "count": 24,
      "max": [
        0.671875,
        0.5
      ],
      "min": [
        0.328125,
        0.421875
      ],
      "type": "VEC2"
    },
    {
      "bufferView": 1,
      "byteOffset": 11712,
      "componentType": 5126,
      "count": 24,
      "max": [
        0.671875,
        0.5
      ],
      "min": [
        0.328125,
        0.421875
      ],
      "type": "VEC2"
    },
    {
      "bufferView": 1,
      "byteOffset": 11904,
      "componentType": 5126,
      "count": 24,
      "max": [
        0.671875,
        0.5
      ],
      "min": [
        0.328125,
        0.421875
      ],
      "type": "VEC2"
    },
    {
      "bufferView": 1,
      "byteOffset": 12096,
      "componentType": 5126,
      "count": 24,
      "max": [
        0.671875,
        0.5
      ],
      "min": [
        0.328125,
        0.421875
      ],
      "type": "VEC2"
    },
    {
      "bufferView": 1,
      "byteOffset": 12288,
      "componentType": 5126,
      "count": 24,
      "max": [
        0.671875,
        0.5
      ],
      "min": [
        0.328125,
        0.421875
      ],
      "type": "VEC2"
    },
    {
      "bufferView": 1,
      "byteOffset": 12480,
      "componentType": 5126,
      "count": 24,
      "max": [
        0.671875,
        0.5
      ],
      "min": [
        0.328125,
        0.421875
      ],
      "type": "VEC2"
    },
    {
      "bufferView": 1,
      "byteOffset": 12672,
      "componentType": 5126,
      "count": 24,
      "max": [
        0.671875,
        0.5
      ],
      "min": [
        0.328125,
        0.421875
      ],
      "type": "VEC2"
    },
    {
      "bufferView": 1,
      "byteOffset": 12864,
      "componentType": 5126,
      "count": 24,
      "max": [
        0.671875,
        0.5
      ],
      "min": [
        0.328125,
        0.421875
      ],
      "type": "VEC2"
    },
    {
      "bufferView": 1,
      "byteOffset": 13056,
      "componentType": 5126,
      "count": 24,
      "max": [
        0.671875,
        0.5
      ],
      "min": [
        0.328125,
        0.421875
      ],
      "type": "VEC2"
    },
    {
      "bufferView": 1,
      "byteOffset": 13248,
      "componentType": 5126,
      "count": 24,
      "max": [
        0.671875,
        0.5
      ],
      "min": [
        0.328125,
        0.421875
      ],
      "type": "VEC2"
    },
    {
      "bufferView": 0,
      "byteOffset": 864,
      "componentType": 5125,
      "count": 36,
      "type": "SCALAR"
    },
    {
      "bufferView": 2,
      "byteOffset": 4032,
      "componentType": 5126,
      "count": 24,
      "max": [
        43.75,
        18.75,
        -12.5
      ],
      "min": [
        31.25,
        -25.0,
        -18.75
      ],
      "type": "VEC3"
    },
    {
      "bufferView": 2,
      "byteOffset": 4320,
      "componentType": 5126,
      "count": 24,
      "max": [
        1.0,
        1.0,
        1.0
      ],
      "min": [
        -1.0,
        -1.0,
        -1.0
      ],
      "type": "VEC3"
    },
    {
      "bufferView": 1,
      "byteOffset": 13440,
      "componentType": 5126,
      "count": 24,
      "max": [
        0.09375,
        1.0
      ],
      "min": [
        0.0,
        0.875
      ],
      "type": "VEC2"
    },
    {
      "bufferView": 1,
      "byteOffset": 13632,
      "componentType": 5126,
      "count": 24,
      "max": [
        0.09375,
        1.0
      ],
      "min": [
        0.0,
        0.875
      ],
      "type": "VEC2"
    },
    {
      "bufferView": 1,
      "byteOffset": 13824,
      "componentType": 5126,
      "count": 24,
      "max": [
        0.09375,
        1.0
      ],
      "min": [
        0.0,
        0.875
      ],
      "type": "VEC2"
    },
    {
      "bufferView": 1,
      "byteOffset": 14016,
      "componentType": 5126,
      "count": 24,
      "max": [
        0.09375,
        1.0
      ],
      "min": [
        0.0,
        0.875
      ],
      "type": "VEC2"
    },
    {
      "bufferView": 1,
      "byteOffset": 14208,
      "componentType": 5126,
      "count": 24,
      "max": [
        0.09375,
        1.0
      ],
      "min": [
        0.0,
        0.875
      ],
      "type": "VEC2"
    },
    {
      "bufferView": 1,
      "byteOffset": 14400,
      "componentType": 5126,
      "count": 24,
      "max": [
        0.09375,
        1.0
      ],
      "min": [
        0.0,
        0.875
      ],
      "type": "VEC2"
    },
    {
      "bufferView": 1,
      "byteOffset": 14592,
      "componentType": 5126,
      "count": 24,
      "max": [
        0.09375,
        1.0
      ],
      "min": [
        0.0,
        0.875
      ],
      "type": "VEC2"
    },
    {
      "bufferView": 1,
      "byteOffset": 14784,
      "componentType": 5126,
      "count": 24,
      "max": [
        0.09375,
        1.0
      ],
      "min": [
        0.0,
        0.875
      ],
      "type": "VEC2"
    },
    {
      "bufferView": 1,
      "byteOffset": 14976,
      "componentType": 5126,
      "count": 24,
      "max": [
        0.09375,
        1.0
      ],
      "min": [
        0.0,
        0.875
      ],
      "type": "VEC2"
    },
    {
      "bufferView": 1,
      "byteOffset": 15168,
      "componentType": 5126,
      "count": 24,
      "max": [
        0.09375,
        1.0
      ],
      "min": [
        0.0,
        0.875
      ],
      "type": "VEC2"
    },
    {
      "bufferView": 0,
      "byteOffset": 1008,
      "componentType": 5125,
      "count": 36,
      "type": "SCALAR"
    },
    {
      "bufferView": 2,
      "byteOffset": 4608,
      "componentType": 5126,
      "count": 24,
      "max": [
        -5.638233661651611,
        17.882192611694336,
        12.5
      ],
      "min": [
        -30.638233184814453,
        -57.11780548095703,
        -12.5
      ],
      "type": "VEC3"
    },
    {
      "bufferView": 2,
      "byteOffset": 4896,
      "componentType": 5126,
      "count": 24,
      "max": [
        1.0,
        1.0,
        1.0
      ],
      "min": [
        -1.0,
        -1.0,
        -1.0
      ],
      "type": "VEC3"
    },
    {
      "bufferView": 1,
      "byteOffset": 15360,
      "componentType": 5126,
      "count": 24,
      "max": [
        0.75,
        1.0
      ],
      "min": [
        0.5,
        0.75
      ],
      "type": "VEC2"
    },
    {
      "bufferView": 1,
      "byteOffset": 15552,
      "componentType": 5126,
      "count": 24,
      "max": [
        0.75,
        1.0
      ],
      "min": [
        0.5,
        0.75
      ],
      "type": "VEC2"
    },
    {
      "bufferView": 1,
      "byteOffset": 15744,
      "componentType": 5126,
      "count": 24,
      "max": [
        0.75,
        1.0
      ],
      "min": [
        0.5,
        0.75
      ],
      "type": "VEC2"
    },
    {
      "bufferView": 1,
      "byteOffset": 15936,
      "componentType": 5126,
      "count": 24,
      "max": [
        0.75,
        1.0
      ],
      "min": [
        0.5,
        0.75
      ],
      "type": "VEC2"
    },
    {
      "bufferView": 1,
      "byteOffset": 16128,
      "componentType": 5126,
      "count": 24,
      "max": [
        0.75,
        1.0
      ],
      "min": [
        0.5,
        0.75
      ],
      "type": "VEC2"
    },
    {
      "bufferView": 1,
      "byteOffset": 16320,
      "componentType": 5126,
      "count": 24,
      "max": [
        0.75,
        1.0
      ],
      "min": [
        0.5,
        0.75
      ],
      "type": "VEC2"
    },
    {
      "bufferView": 1,
      "byteOffset": 16512,
      "componentType": 5126,
      "count": 24,
      "max": [
        0.75,
        1.0
      ],
      "min": [
        0.5,
        0.75
      ],
      "type": "VEC2"
    },
    {
      "bufferView": 1,
      "byteOffset": 16704,
      "componentType": 5126,
      "count": 24,
      "max": [
        0.75,
        1.0
      ],
      "min": [
        0.5,
        0.75
      ],
      "type": "VEC2"
    },
    {
      "bufferView": 1,
      "byteOffset": 16896,
      "componentType": 5126,
      "count": 24,
      "max": [
        0.75,
        1.0
      ],
      "min": [
        0.5,
        0.75
      ],
      "type": "VEC2"
    },
    {
      "bufferView": 1,
      "byteOffset": 17088,
      "componentType": 5126,
      "count": 24,
      "max": [
        0.75,
        1.0
      ],
      "min": [
        0.5,
        0.75
      ],
      "type": "VEC2"
    },
    {
      "bufferView": 0,
      "byteOffset": 1152,
      "componentType": 5125,
      "count": 36,
      "type": "SCALAR"
    },
    {
      "bufferView": 3,
      "componentType": 5126,
      "count": 481,
      "max": [
        12.25
      ],
      "min": [
        0.0
      ],
      "type": "SCALAR"
    },
    {
      "bufferView": 5,
      "componentType": 5126,
      "count": 481,
      "max": [
        0.07822345942258835,
        -0.0022899021860212088,
        0.04621884226799011,
        0.9990496039390564
      ],
      "min": [
        -0.09832294285297394,
        -0.010073262266814709,
        0.03852192312479019,
        0.9941511154174805
      ],
      "type": "VEC4"
    },
    {
      "bufferView": 3,
      "byteOffset": 1924,
      "componentType": 5126,
      "count": 210,
      "max": [
        12.25
      ],
      "min": [
        0.0
      ],
      "type": "SCALAR"
    },
    {
      "bufferView": 4,
      "componentType": 5126,
      "count": 210,
      "max": [
        1.0,
        1.0,
        1.1074020862579346
      ],
      "min": [
        1.0,
        1.0,
        1.0499999523162842
      ],
      "type": "VEC3"
    },
    {
      "bufferView": 3,
      "byteOffset": 2764,
      "componentType": 5126,
      "count": 494,
      "max": [
        12.25
      ],
      "min": [
        0.0
      ],
      "type": "SCALAR"
    },
    {
      "bufferView": 4,
      "byteOffset": 2520,
      "componentType": 5126,
      "count": 494,
      "max": [
        25.0,
        0.0,
        0.0
      ],
      "min": [
        25.0,
        -13.41552734375,
        0.0
      ],
      "type": "VEC3"
    },
    {
      "bufferView": 3,
      "byteOffset": 4740,
      "componentType": 5126,
      "count": 485,
      "max": [
        12.25
      ],
      "min": [
        0.0
      ],
      "type": "SCALAR"
    },
    {
      "bufferView": 5,
      "byteOffset": 7696,
      "componentType": 5126,
      "count": 485,
      "max": [
        0.7071067094802856,
        -6.079990400031932e-10,
        6.080013159603936e-10,
        0.7071068286895752
      ],
      "min": [
        0.542067289352417,
        -0.45405179262161255,
        -0.4540518522262573,
        0.5420673489570618
      ],
      "type": "VEC4"
    },
    {
      "bufferView": 3,
      "byteOffset": 6680,
      "componentType": 5126,
      "count": 494,
      "max": [
        12.25
      ],
      "min": [
        0.0
      ],
      "type": "SCALAR"
    },
    {
      "bufferView": 4,
      "byteOffset": 8448,
      "componentType": 5126,
      "count": 494,
      "max": [
        -25.0,
        0.0,
        0.0
      ],
      "min": [
        -25.0,
        -13.41552734375,
        0.0
      ],
      "type": "VEC3"
    },
    {
      "bufferView": 3,
      "byteOffset": 8656,
      "componentType": 5126,
      "count": 485,
      "max": [
        12.25
      ],
      "min": [
        0.0
      ],
      "type": "SCALAR"
    },
    {
      "bufferView": 5,
      "byteOffset": 15456,
      "componentType": 5126,
      "count": 485,
      "max": [
        0.0,
        -0.0,
        0.06454192101955414,
        1.0
      ],
      "min": [
        0.0,
        -0.0,
        -0.591309666633606,
        0.8064445853233337
      ],
      "type": "VEC4"
    },
    {
      "bufferView": 3,
      "byteOffset": 10596,
      "componentType": 5126,
      "count": 364,
      "max": [
        7.999999523162842
      ],
      "min": [
        0.0
      ],
      "type": "SCALAR"
    },
    {
      "bufferView": 5,
      "byteOffset": 23216,
      "componentType": 5126,
      "count": 364,
      "max": [
        0.06534087657928467,
        -0.002852844772860408,
        0.04352599382400513,
        0.9988104701042175
      ],
      "min": [
        0.021794123575091362,
        -0.004748706705868244,
        0.04336012899875641,
        0.9969092011451721
      ],
      "type": "VEC4"
    },
    {
      "bufferView": 3,
      "byteOffset": 12052,
      "componentType": 5126,
      "count": 364,
      "max": [
        7.999999523162842
      ],
      "min": [
        0.0
      ],
      "type": "SCALAR"
    },
    {
      "bufferView": 4,
      "byteOffset": 14376,
      "componentType": 5126,
      "count": 364,
      "max": [
        1.0,
        1.0,
        1.100000023841858
      ],
      "min": [
        1.0,
        1.0,
        1.0
      ],
      "type": "VEC3"
    },
    {
      "bufferView": 3,
      "byteOffset": 13508,
      "componentType": 5126,
      "count": 364,
      "max": [
        7.999999523162842
      ],
      "min": [
        0.0
      ],
      "type": "SCALAR"
    },
    {
      "bufferView": 5,
      "byteOffset": 29040,
      "componentType": 5126,
      "count": 364,
      "max": [
        0.5702424049377441,
        -0.41811904311180115,
        -0.4181191027164459,
        0.5702424645423889
      ],
      "min": [
        0.5514615774154663,
        -0.4425947070121765,
        -0.4425947666168213,
        0.5514616370201111
      ],
      "type": "VEC4"
    },
    {
      "bufferView": 3,
      "byteOffset": 14964,
      "componentType": 5126,
      "count": 364,
      "max": [
        7.999999523162842
      ],
      "min": [
        0.0
      ],
      "type": "SCALAR"
    },
    {
      "bufferView": 5,
      "byteOffset": 34864,
      "componentType": 5126,
      "count": 364,
      "max": [
        0.0,
        0.0,
        0.04361938685178757,
        1.0
      ],
      "min": [
        0.0,
        0.0,
        0.0,
        0.9990482330322266
      ],
      "type": "VEC4"
    },
    {
      "bufferView": 3,
      "byteOffset": 16420,
      "componentType": 5126,
      "count": 50,
      "max": [
        5.708333492279053
      ],
      "min": [
        0.0
      ],
      "type": "SCALAR"
    },
    {
      "bufferView": 4,
      "byteOffset": 18744,
      "componentType": 5126,
      "count": 50,
      "max": [
        0.0,
        137.5,
        0.0
      ],
      "min": [
        0.0,
        131.25,
        -6.25
      ],
      "type": "VEC3"
    },
    {
      "bufferView": 3,
      "byteOffset": 16620,
      "componentType": 5126,
      "count": 197,
      "max": [
        5.708333492279053
      ],
      "min": [
        0.0
      ],
      "type": "SCALAR"
    },
    {
      "bufferView": 5,
      "byteOffset": 40688,
      "componentType": 5126,
      "count": 197,
      "max": [
        0.08707278966903687,
        -0.0019026510417461395,
        0.04357787221670151,
        0.9980973601341248
      ],
      "min": [
        0.043577875941991806,
        -0.0038016801699995995,
        0.0434534028172493,
        0.9952465295791626
      ],
      "type": "VEC4"
    },
    {
      "bufferView": 3,
      "byteOffset": 17408,
      "componentType": 5126,
      "count": 58,
      "max": [
        1.2916666269302368
      ],
      "min": [
        0.0
      ],
      "type": "SCALAR"
    },
    {
      "bufferView": 4,
      "byteOffset": 19344,
      "componentType": 5126,
      "count": 58,
      "max": [
        25.0,
        0.0,
        0.0
      ],
      "min": [
        25.0,
        -6.25,
        -6.25
      ],
      "type": "VEC3"
    },
    {
      "bufferView": 3,
      "byteOffset": 17640,
      "componentType": 5126,
      "count": 58,
      "max": [
        1.2916666269302368
      ],
      "min": [
        0.0
      ],
      "type": "SCALAR"
    },
    {
      "bufferView": 5,
      "byteOffset": 43840,
      "componentType": 5126,
      "count": 58,
      "max": [
        0.5702424049377441,
        -0.11786320805549622,
        -0.4181191027164459,
        0.5865527987480164
      ],
      "min": [
        0.5349441170692444,
        -0.41811904311180115,
        -0.5965725779533386,
        0.5702424645423889
      ],
      "type": "VEC4"
    },
    {
      "bufferView": 3,
      "byteOffset": 17872,
      "componentType": 5126,
      "count": 56,
      "max": [
        1.25
      ],
      "min": [
        0.0
      ],
      "type": "SCALAR"
    },
    {
      "bufferView": 4,
      "byteOffset": 20040,
      "componentType": 5126,
      "count": 56,
      "max": [
        -25.0,
        0.0,
        6.25
      ],
      "min": [
        -25.0,
        -6.25,
        0.0
      ],
      "type": "VEC3"
    },
    {
      "bufferView": 3,
      "byteOffset": 18096,
      "componentType": 5126,
      "count": 56,
      "max": [
        1.25
      ],
      "min": [
        0.0
      ],
      "type": "SCALAR"
    },
    {
      "bufferView": 5,
      "byteOffset": 44768,
      "componentType": 5126,
      "count": 56,
      "max": [
        0.0,
        0.10886687785387039,
        0.0,
        1.0
      ],
      "min": [
        0.0,
        0.0,
        0.0,
        0.9940563440322876
      ],
      "type": "VEC4"
    },
    {
      "bufferView": 3,
      "byteOffset": 18320,
      "componentType": 5126,
      "count": 195,
      "max": [
        5.75
      ],
      "min": [
        0.0
      ],
      "type": "SCALAR"
    },
    {
      "bufferView": 4,
      "byteOffset": 20712,
      "componentType": 5126,
      "count": 195,
      "max": [
        0.0,
        131.25,
        0.0
      ],
      "min": [
        0.0,
        128.125,
        0.0
      ],
      "type": "VEC3"
    },
    {
      "bufferView": 3,
      "byteOffset": 19100,
      "componentType": 5126,
      "count": 3,
      "max": [
        5.708333492279053
      ],
      "min": [
        0.0
      ],
      "type": "SCALAR"
    },
    {
      "bufferView": 4,
      "byteOffset": 23052,
      "componentType": 5126,
      "count": 3,
      "max": [
        0.0,
        137.5,
        0.0
      ],
      "min": [
        0.0,
        131.25,
        -6.25
      ],
      "type": "VEC3"
    },
    {
      "bufferView": 3,
      "byteOffset": 19112,
      "componentType": 5126,
      "count": 245,
      "max": [
        5.708333492279053
      ],
      "min": [
        0.0
      ],
      "type": "SCALAR"
    },
    {
      "bufferView": 5,
      "byteOffset": 45664,
      "componentType": 5126,
      "count": 245,
      "max": [
        0.08707278966903687,
        -0.0019026510417461395,
        0.04357787221670151,
        0.9980973601341248
      ],
      "min": [
        0.043577875941991806,
        -0.0038016801699995995,
        0.0434534028172493,
        0.9952465295791626
      ],
      "type": "VEC4"
    },
    {
      "bufferView": 3,
      "byteOffset": 20092,
      "componentType": 5126,
      "count": 414,
      "max": [
        9.0
      ],
      "min": [
        0.0
      ],
      "type": "SCALAR"
    },
    {
      "bufferView": 4,
      "byteOffset": 23088,
      "componentType": 5126,
      "count": 414,
      "max": [
        25.462627410888672,
        -5.494140625,
        18.5
      ],
      "min": [
        18.75,
        -34.375,
        -13.28125
      ],
      "type": "VEC3"
    },
    {
      "bufferView": 3,
      "byteOffset": 21748,
      "componentType": 5126,
      "count": 414,
      "max": [
        9.0
      ],
      "min": [
        0.0
      ],
      "type": "SCALAR"
    },
    {
      "bufferView": 5,
      "byteOffset": 49584,
      "componentType": 5126,
      "count": 414,
      "max": [
        0.8320063352584839,
        0.372676819562912,
        0.9495503306388855,
        0.5997248888015747
      ],
      "min": [
        -0.5444406270980835,
        -0.1299668848514557,
        -0.7553426027297974,
        -0.4976175129413605
      ],
      "type": "VEC4"
    },
    {
      "bufferView": 3,
      "byteOffset": 23404,
      "componentType": 5126,
      "count": 1,
      "max": [
        0.0
      ],
      "min": [
        0.0
      ],
      "type": "SCALAR"
    },
    {
      "bufferView": 4,
      "byteOffset": 28056,
      "componentType": 5126,
      "count": 1,
      "max": [
        -25.0,
        -6.25,
        6.25
      ],
      "min": [
        -25.0,
        -6.25,
        6.25
      ],
      "type": "VEC3"
    },
    {
      "bufferView": 3,
      "byteOffset": 23408,
      "componentType": 5126,
      "count": 1,
      "max": [
        0.0
      ],
      "min": [
        0.0
      ],
      "type": "SCALAR"
    },
    {
      "bufferView": 5,
      "byteOffset": 56208,
      "componentType": 5126,
      "count": 1,
      "max": [
        0.0,
        0.10886687785387039,
        0.0,
        0.9940563440322876
      ],
      "min": [
        0.0,
        0.10886687785387039,
        0.0,
        0.9940563440322876
      ],
      "type": "VEC4"
    },
    {
      "bufferView": 3,
      "byteOffset": 23412,
      "componentType": 5126,
      "count": 410,
      "max": [
        9.25
      ],
      "min": [
        0.0
      ],
      "type": "SCALAR"
    },
    {
      "bufferView": 4,
      "byteOffset": 28068,
      "componentType": 5126,
      "count": 410,
      "max": [
        0.0,
        131.25,
        0.0
      ],
      "min": [
        0.0,
        128.125,
        0.0
      ],
      "type": "VEC3"
    },
    {
      "bufferView": 3,
      "byteOffset": 25052,
      "componentType": 5126,
      "count": 186,
      "max": [
        4.458333492279053
      ],
      "min": [
        0.0
      ],
      "type": "SCALAR"
    },
    {
      "bufferView": 4,
      "byteOffset": 32988,
      "componentType": 5126,
      "count": 186,
      "max": [
        0.0,
        137.9629669189453,
        13.88888931274414
      ],
      "min": [
        0.0,
        131.25,
        -6.25
      ],
      "type": "VEC3"
    },
    {
      "bufferView": 3,
      "byteOffset": 25796,
      "componentType": 5126,
      "count": 167,
      "max": [
        4.458333492279053
      ],
      "min": [
        0.0
      ],
      "type": "SCALAR"
    },
    {
      "bufferView": 5,
      "byteOffset": 56224,
      "componentType": 5126,
      "count": 167,
      "max": [
        0.3833238184452057,
        0.07784192264080048,
        0.06629233062267303,
        0.9986669421195984
      ],
      "min": [
        -0.08707279711961746,
        -0.009440964087843895,
        0.04088658466935158,
        0.9180450439453125
      ],
      "type": "VEC4"
    },
    {
      "bufferView": 3,
      "byteOffset": 26464,
      "componentType": 5126,
      "count": 1,
      "max": [
        0.0
      ],
      "min": [
        0.0
      ],
      "type": "SCALAR"
    },
    {
      "bufferView": 4,
      "byteOffset": 35220,
      "componentType": 5126,
      "count": 1,
      "max": [
        1.0,
        1.0,
        1.100000023841858
      ],
      "min": [
        1.0,
        1.0,
        1.100000023841858
      ],
      "type": "VEC3"
    },
    {
      "bufferView": 3,
      "byteOffset": 26468,
      "componentType": 5126,
      "count": 33,
      "max": [
        3.999999761581421
      ],
      "min": [
        0.0
      ],
      "type": "SCALAR"
    },
    {
      "bufferView": 5,
      "byteOffset": 58896,
      "componentType": 5126,
      "count": 33,
      "max": [
        1.3877787807814457e-17,
        0.0,
        0.0,
        1.0
      ],
      "min": [
        -1.3877787807814457e-17,
        0.0,
        0.0,
        1.0
      ],
      "type": "VEC4"
    },
    {
      "bufferView": 3,
      "byteOffset": 26600,
      "componentType": 5126,
      "count": 183,
      "max": [
        3.999999761581421
      ],
      "min": [
        0.0
      ],
      "type": "SCALAR"
    },
    {
      "bufferView": 4,
      "byteOffset": 35232,
      "componentType": 5126,
      "count": 183,
      "max": [
        25.0,
        -6.25,
        0.46296292543411255
      ],
      "min": [
        25.0,
        -12.962963104248047,
        -6.25
      ],
      "type": "VEC3"
    },
    {
      "bufferView": 3,
      "byteOffset": 27332,
      "componentType": 5126,
      "count": 183,
      "max": [
        3.999999761581421
      ],
      "min": [
        0.0
      ],
      "type": "SCALAR"
    },
    {
      "bufferView": 5,
      "byteOffset": 59424,
      "componentType": 5126,
      "count": 183,
      "max": [
        0.8353520035743713,
        0.7024539113044739,
        0.14947310090065002,
        0.7071068286895752
      ],
      "min": [
        -0.6621865034103394,
        -0.6611385941505432,
        -0.5965725779533386,
        -0.3222798705101013
      ],
      "type": "VEC4"
    },
    {
      "bufferView": 3,
      "byteOffset": 28064,
      "componentType": 5126,
      "count": 183,
      "max": [
        3.999999761581421
      ],
      "min": [
        0.0
      ],
      "type": "SCALAR"
    },
    {
      "bufferView": 4,
      "byteOffset": 37428,
      "componentType": 5126,
      "count": 183,
      "max": [
        -25.0,
        -6.25,
        6.25
      ],
      "min": [
        -25.0,
        -12.962963104248047,
        -0.46296292543411255
      ],
      "type": "VEC3"
    },
    {
      "bufferView": 3,
      "byteOffset": 28796,
      "componentType": 5126,
      "count": 183,
      "max": [
        3.999999761581421
      ],
      "min": [
        0.0
      ],
      "type": "SCALAR"
    },
    {
      "bufferView": 5,
      "byteOffset": 62352,
      "componentType": 5126,
      "count": 183,
      "max": [
        0.0,
        0.12259019911289215,
        0.16392852365970612,
        0.9940563440322876
      ],
      "min": [
        -0.13579903542995453,
        -0.0,
        -0.591309666633606,
        0.8064445853233337
      ],
      "type": "VEC4"
    },
    {
      "bufferView": 3,
      "byteOffset": 29528,
      "componentType": 5126,
      "count": 201,
      "max": [
        4.791666507720947
      ],
      "min": [
        0.0
      ],
      "type": "SCALAR"
    },
    {
      "bufferView": 4,
      "byteOffset": 39624,
      "componentType": 5126,
      "count": 201,
      "max": [
        0.0,
        131.25,
        4.3298697960381105e-15
      ],
      "min": [
        0.0,
        128.125,
        -5.995204332975845e-15
      ],
      "type": "VEC3"
    },
    {
      "bufferView": 3,
      "byteOffset": 30332,
      "componentType": 5126,
      "count": 53,
      "max": [
        4.791666507720947
      ],
      "min": [
        0.0
      ],
      "type": "SCALAR"
    },
    {
      "bufferView": 5,
      "byteOffset": 65280,
      "componentType": 5126,
      "count": 53,
      "max": [
        1.3877787807814457e-17,
        0.0,
        0.0,
        1.0
      ],
      "min": [
        -1.3877787807814457e-17,
        0.0,
        0.0,
        1.0
      ],
      "type": "VEC4"
    },
    {
      "bufferView": 3,
      "byteOffset": 30544,
      "componentType": 5126,
      "count": 172,
      "max": [
        3.999999761581421
      ],
      "min": [
        0.0
      ],
      "type": "SCALAR"
    },
    {
      "bufferView": 5,
      "byteOffset": 66128,
      "componentType": 5126,
      "count": 172,
      "max": [
        0.07024010270833969,
        0.0,
        0.0,
        1.0
      ],
      "min": [
        0.0,
        0.0,
        0.0,
        0.9975301027297974
      ],
      "type": "VEC4"
    }
  ],
  "animations": [
    {
      "channels": [
        {
          "sampler": 0,
          "target": {
            "node": 5,
            "path": "rotation"
          }
        },
        {
          "sampler": 1,
          "target": {
            "node": 8,
            "path": "scale"
          }
        },
        {
          "sampler": 2,
          "target": {
            "node": 16,
            "path": "translation"
          }
        },
        {
          "sampler": 3,
          "target": {
            "node": 16,
            "path": "rotation"
          }
        },
        {
          "sampler": 4,
          "target": {
            "node": 25,
            "path": "translation"
          }
        },
        {
          "sampler": 5,
          "target": {
            "node": 25,
            "path": "rotation"
          }
        }
      ],
      "name": "ativazione animation",
      "samplers": [
        {
          "input": 117,
          "interpolation": "LINEAR",
          "output": 118
        },
        {
          "input": 119,
          "interpolation": "LINEAR",
          "output": 120
        },
        {
          "input": 121,
          "interpolation": "LINEAR",
          "output": 122
        },
        {
          "input": 123,
          "interpolation": "LINEAR",
          "output": 124
        },
        {
          "input": 125,
          "interpolation": "LINEAR",
          "output": 126
        },
        {
          "input": 127,
          "interpolation": "LINEAR",
          "output": 128
        }
      ]
    },
    {
      "channels": [
        {
          "sampler": 0,
          "target": {
            "node": 5,
            "path": "rotation"
          }
        },
        {
          "sampler": 1,
          "target": {
            "node": 8,
            "path": "scale"
          }
        },
        {
          "sampler": 2,
          "target": {
            "node": 16,
            "path": "rotation"
          }
        },
        {
          "sampler": 3,
          "target": {
            "node": 25,
            "path": "rotation"
          }
        }
      ],
      "name": "stand by animation",
      "samplers": [
        {
          "input": 129,
          "interpolation": "LINEAR",
          "output": 130
        },
        {
          "input": 131,
          "interpolation": "LINEAR",
          "output": 132
        },
        {
          "input": 133,
          "interpolation": "LINEAR",
          "output": 134
        },
        {
          "input": 135,
          "interpolation": "LINEAR",
          "output": 136
        }
      ]
    },
    {
      "channels": [
        {
          "sampler": 0,
          "target": {
            "node": 5,
            "path": "translation"
          }
        },
        {
          "sampler": 1,
          "target": {
            "node": 5,
            "path": "rotation"
          }
        },
        {
          "sampler": 2,
          "target": {
            "node": 16,
            "path": "translation"
          }
        },
        {
          "sampler": 3,
          "target": {
            "node": 16,
            "path": "rotation"
          }
        },
        {
          "sampler": 4,
          "target": {
            "node": 25,
            "path": "translation"
          }
        },
        {
          "sampler": 5,
          "target": {
            "node": 25,
            "path": "rotation"
          }
        },
        {
          "sampler": 6,
          "target": {
            "node": 15,
            "path": "translation"
          }
        }
      ],
      "name": "training position animation",
      "samplers": [
        {
          "input": 137,
          "interpolation": "LINEAR",
          "output": 138
        },
        {
          "input": 139,
          "interpolation": "LINEAR",
          "output": 140
        },
        {
          "input": 141,
          "interpolation": "LINEAR",
          "output": 142
        },
        {
          "input": 143,
          "interpolation": "LINEAR",
          "output": 144
        },
        {
          "input": 145,
          "interpolation": "LINEAR",
          "output": 146
        },
        {
          "input": 147,
          "interpolation": "LINEAR",
          "output": 148
        },
        {
          "input": 149,
          "interpolation": "LINEAR",
          "output": 150
        }
      ]
    },
    {
      "channels": [
        {
          "sampler": 0,
          "target": {
            "node": 5,
            "path": "translation"
          }
        },
        {
          "sampler": 1,
          "target": {
            "node": 5,
            "path": "rotation"
          }
        },
        {
          "sampler": 2,
          "target": {
            "node": 16,
            "path": "translation"
          }
        },
        {
          "sampler": 3,
          "target": {
            "node": 16,
            "path": "rotation"
          }
        },
        {
          "sampler": 4,
          "target": {
            "node": 25,
            "path": "translation"
          }
        },
        {
          "sampler": 5,
          "target": {
            "node": 25,
            "path": "rotation"
          }
        },
        {
          "sampler": 6,
          "target": {
            "node": 15,
            "path": "translation"
          }
        }
      ],
      "name": "blocking animation",
      "samplers": [
        {
          "input": 151,
          "interpolation": "LINEAR",
          "output": 152
        },
        {
          "input": 153,
          "interpolation": "LINEAR",
          "output": 154
        },
        {
          "input": 155,
          "interpolation": "LINEAR",
          "output": 156
        },
        {
          "input": 157,
          "interpolation": "LINEAR",
          "output": 158
        },
        {
          "input": 159,
          "interpolation": "LINEAR",
          "output": 160
        },
        {
          "input": 161,
          "interpolation": "LINEAR",
          "output": 162
        },
        {
          "input": 163,
          "interpolation": "LINEAR",
          "output": 164
        }
      ]
    },
    {
      "channels": [
        {
          "sampler": 0,
          "target": {
            "node": 5,
            "path": "translation"
          }
        },
        {
          "sampler": 1,
          "target": {
            "node": 5,
            "path": "rotation"
          }
        },
        {
          "sampler": 2,
          "target": {
            "node": 8,
            "path": "scale"
          }
        },
        {
          "sampler": 3,
          "target": {
            "node": 8,
            "path": "rotation"
          }
        },
        {
          "sampler": 4,
          "target": {
            "node": 16,
            "path": "translation"
          }
        },
        {
          "sampler": 5,
          "target": {
            "node": 16,
            "path": "rotation"
          }
        },
        {
          "sampler": 6,
          "target": {
            "node": 25,
            "path": "translation"
          }
        },
        {
          "sampler": 7,
          "target": {
            "node": 25,
            "path": "rotation"
          }
        },
        {
          "sampler": 8,
          "target": {
            "node": 15,
            "path": "translation"
          }
        },
        {
          "sampler": 9,
          "target": {
            "node": 15,
            "path": "rotation"
          }
        },
        {
          "sampler": 10,
          "target": {
            "node": 4,
            "path": "rotation"
          }
        }
      ],
      "name": "vanquish animation",
      "samplers": [
        {
          "input": 165,
          "interpolation": "LINEAR",
          "output": 166
        },
        {
          "input": 167,
          "interpolation": "LINEAR",
          "output": 168
        },
        {
          "input": 169,
          "interpolation": "LINEAR",
          "output": 170
        },
        {
          "input": 171,
          "interpolation": "LINEAR",
          "output": 172
        },
        {
          "input": 173,
          "interpolation": "LINEAR",
          "output": 174
        },
        {
          "input": 175,
          "interpolation": "LINEAR",
          "output": 176
        },
        {
          "input": 177,
          "interpolation": "LINEAR",
          "output": 178
        },
        {
          "input": 179,
          "interpolation": "LINEAR",
          "output": 180
        },
        {
          "input": 181,
          "interpolation": "LINEAR",
          "output": 182
        },
        {
          "input": 183,
          "interpolation": "LINEAR",
          "output": 184
        },
        {
          "input": 185,
          "interpolation": "LINEAR",
          "output": 186
        }
      ]
    }
  ],
  "asset": {
    "extras": {
      "author": "𝕲𝖔𝖑𝖉𝖊𝖓 𝕱𝖔𝖗𝖌𝖊𝖗 (https://sketchfab.com/Golden_Forger)",
      "license": "CC-BY-4.0 (http://creativecommons.org/licenses/by/4.0/)",
      "source": "https://sketchfab.com/3d-models/the-practice-dummy-e9f8055b88d043c38475c8c490587704",
      "title": "The Practice Dummy"
    },
    "generator": "Sketchfab-16.95.0",
    "version": "2.0"
  },
  "bufferViews": [
    {
      "buffer": 0,
      "byteLength": 1296,
      "name": "floatBufferViews",
      "target": 34963
    },
    {
      "buffer": 0,
      "byteLength": 17280,
      "byteOffset": 1296,
      "byteStride": 8,
      "name": "floatBufferViews",
      "target": 34962
    },
    {
      "buffer": 0,
      "byteLength": 5184,
      "byteOffset": 18576,
      "byteStride": 12,
      "name": "floatBufferViews",
      "target": 34962
    },
    {
      "buffer": 0,
      "byteLength": 31232,
      "byteOffset": 23760,
      "name": "floatBufferViews"
    },
    {
      "buffer": 0,
      "byteLength": 42036,
      "byteOffset": 54992,
      "byteStride": 12,
      "name": "floatBufferViews"
    },
    {
      "buffer": 0,
      "byteLength": 68880,
      "byteOffset": 97028,
      "byteStride": 16,
      "name": "floatBufferViews"
    }
  ],
  "buffers": [
    {
      "byteLength": 165908,
      "uri": "scene.bin"
    }
  ],
  "extensionsUsed": [
    "KHR_materials_emissive_strength"
  ],
  "images": [
    {
      "uri": "textures/dummy_texture.png_baseColor.png"
    }
  ],
  "materials": [
    {
      "doubleSided": true,
      "extensions": {
        "KHR_materials_emissive_strength": {
          "emissiveStrength": 10.0
        }
      },
      "name": "dummy_texture.png",
      "pbrMetallicRoughness": {
        "baseColorTexture": {
          "index": 0
        },
        "metallicFactor": 0.20579268292682926,
        "roughnessFactor": 0.0
      }
    }
  ],
  "meshes": [
    {
      "name": "cube_dummy texture.png_0",
      "primitives": [
        {
          "attributes": {
            "NORMAL": 1,
            "POSITION": 0,
            "TEXCOORD_0": 2,
            "TEXCOORD_1": 3,
            "TEXCOORD_2": 4,
            "TEXCOORD_3": 5,
            "TEXCOORD_4": 6,
            "TEXCOORD_5": 7,
            "TEXCOORD_6": 8,
            "TEXCOORD_7": 9,
            "TEXCOORD_8": 10,
            "TEXCOORD_9": 11
          },
          "indices": 12,
          "material": 0,
          "mode": 4
        }
      ]
    },
    {
      "name": "cube_1_dummy texture.png_0",
      "primitives": [
        {
          "attributes": {
            "NORMAL": 14,
            "POSITION": 13,
            "TEXCOORD_0": 15,
            "TEXCOORD_1": 16,
            "TEXCOORD_2": 17,
            "TEXCOORD_3": 18,
            "TEXCOORD_4": 19,
            "TEXCOORD_5": 20,
            "TEXCOORD_6": 21,
            "TEXCOORD_7": 22,
            "TEXCOORD_8": 23,
            "TEXCOORD_9": 24
          },
          "indices": 25,
          "material": 0,
          "mode": 4
        }
      ]
    },
    {
      "name": "cube_2_dummy texture.png_0",
      "primitives": [
        {
          "attributes": {
            "NORMAL": 27,
            "POSITION": 26,
            "TEXCOORD_0": 28,
            "TEXCOORD_1": 29,
            "TEXCOORD_2": 30,
            "TEXCOORD_3": 31,
            "TEXCOORD_4": 32,
            "TEXCOORD_5": 33,
            "TEXCOORD_6": 34,
            "TEXCOORD_7": 35,
            "TEXCOORD_8": 36,
            "TEXCOORD_9": 37
          },
          "indices": 38,
          "material": 0,
          "mode": 4
        }
      ]
    },
    {
      "name": "cube_5_dummy texture.png_0",
      "primitives": [
        {
          "attributes": {
            "NORMAL": 40,
            "POSITION": 39,
            "TEXCOORD_0": 41,
            "TEXCOORD_1": 42,
            "TEXCOORD_2": 43,
            "TEXCOORD_3": 44,
            "TEXCOORD_4": 45,
            "TEXCOORD_5": 46,
            "TEXCOORD_6": 47,
            "TEXCOORD_7": 48,
            "TEXCOORD_8": 49,
            "TEXCOORD_9": 50
          },
          "indices": 51,
          "material": 0,
          "mode": 4
        }
      ]
    },
    {
      "name": "cube_4_dummy texture.png_0",
      "primitives": [
        {
          "attributes": {
            "NORMAL": 53,
            "POSITION": 52,
            "TEXCOORD_0": 54,
            "TEXCOORD_1": 55,
            "TEXCOORD_2": 56,
            "TEXCOORD_3": 57,
            "TEXCOORD_4": 58,
            "TEXCOORD_5": 59,
            "TEXCOORD_6": 60,
            "TEXCOORD_7": 61,
            "TEXCOORD_8": 62,
            "TEXCOORD_9": 63
          },
          "indices": 64,
          "material": 0,
          "mode": 4
        }
      ]
    },
    {
      "name": "cube_6_dummy texture.png_0",
      "primitives": [
        {
          "attributes": {
            "NORMAL": 66,
            "POSITION": 65,
            "TEXCOORD_0": 67,
            "TEXCOORD_1": 68,
            "TEXCOORD_2": 69,
            "TEXCOORD_3": 70,
            "TEXCOORD_4": 71,
            "TEXCOORD_5": 72,
            "TEXCOORD_6": 73,
            "TEXCOORD_7": 74,
            "TEXCOORD_8": 75,
            "TEXCOORD_9": 76
          },
          "indices": 77,
          "material": 0,
          "mode": 4
        }
      ]
    },
    {
      "name": "cube_7_dummy texture.png_0",
      "primitives": [
        {
          "attributes": {
            "NORMAL": 79,
            "POSITION": 78,
            "TEXCOORD_0": 80,
            "TEXCOORD_1": 81,
            "TEXCOORD_2": 82,
            "TEXCOORD_3": 83,
            "TEXCOORD_4": 84,
            "TEXCOORD_5": 85,
            "TEXCOORD_6": 86,
            "TEXCOORD_7": 87,
            "TEXCOORD_8": 88,
            "TEXCOORD_9": 89
          },
          "indices": 90,
          "material": 0,
          "mode": 4
        }
      ]
    },
    {
      "name": "cube_8_dummy texture.png_0",
      "primitives": [
        {
          "attributes": {
            "NORMAL": 92,
            "POSITION": 91,
            "TEXCOORD_0": 93,
            "TEXCOORD_1": 94,
            "TEXCOORD_2": 95,
            "TEXCOORD_3": 96,
            "TEXCOORD_4": 97,
            "TEXCOORD_5": 98,
            "TEXCOORD_6": 99,
            "TEXCOORD_7": 100,
            "TEXCOORD_8": 101,
            "TEXCOORD_9": 102
          },
          "indices": 103,
          "material": 0,
          "mode": 4
        }
      ]
    },
    {
      "name": "cube_3_dummy texture.png_0",
      "primitives": [
        {
          "attributes": {
            "NORMAL": 105,
            "POSITION": 104,
            "TEXCOORD_0": 106,
            "TEXCOORD_1": 107,
            "TEXCOORD_2": 108,
            "TEXCOORD_3": 109,
            "TEXCOORD_4": 110,
            "TEXCOORD_5": 111,
            "TEXCOORD_6": 112,
            "TEXCOORD_7": 113,
            "TEXCOORD_8": 114,
            "TEXCOORD_9": 115
          },
          "indices": 116,
          "material": 0,
          "mode": 4
        }
      ]
    }
  ],
  "nodes": [
    {
      "children": [
        1
      ],
      "matrix": [
        0.9927871823310852,
        0.0,
        0.0,
        0.0,
        0.0,
        2.2044303767534084e-16,
        -0.9927871823310852,
        0.0,
        0.0,
        0.9927871823310852,
        2.2044303767534084e-16,
        0.0,
        0.0,
        0.0,
        0.0,
        1.0
      ],
      "name": "Sketchfab_model"
    },
    {
      "children": [
        2
      ],
      "matrix": [
        0.009999999776482582,
        0.0,
        0.0,
        0.0,
        0.0,
        0.0,
        0.009999999776482582,
        0.0,
        0.0,
        -0.009999999776482582,
        0.0,
        0.0,
        0.0,
        0.0,
        0.0,
        1.0
      ],
      "name": "a54b2a6618a648a4a426f8e49e80654f.fbx"
    },
    {
      "children": [
        3
      ],
      "name": "Object_2"
    },
    {
      "children": [
        4
      ],
      "name": "RootNode"
    },
    {
      "children": [
        5,
        8,
        15
      ],
      "name": "body",
      "translation": [
        0.0,
        6.25,
        0.0
      ]
    },
    {
      "children": [
        6
      ],
      "name": "head",
      "rotation": [
        0.06534087657928467,
        -0.002852844540029764,
        0.04352599382400513,
        0.9969092011451721
      ],
      "translation": [
        0.0,
        137.5,
        0.0
      ]
    },
    {
      "children": [
        7
      ],
      "name": "cube",
      "rotation": [
        -0.06534087657928467,
        -0.002852844540029764,
        -0.04352599382400513,
        0.9969092011451721
      ],
      "translation": [
        1.7763568394002505e-15,
        0.0,
        6.25
      ]
    },
    {
      "mesh": 0,
      "name": "cube_dummy texture.png_0"
    },
    {
      "children": [
        9,
        11,
        13
      ],
      "name": "torso"
    },
    {
      "children": [
        10
      ],
      "name": "cube_1",
      "rotation": [
        0.0,
        0.0,
        3.469446951953614e-17,
        1.0
      ],
      "translation": [
        0.0,
        -12.5,
        0.0
      ]
    },
    {
      "mesh": 1,
      "name": "cube_1_dummy texture.png_0"
    },
    {
      "children": [
        12
      ],
      "name": "cube_2",
      "rotation": [
        0.0,
        0.0,
        3.469446951953614e-17,
        1.0
      ]
    },
    {
      "mesh": 2,
      "name": "cube_2_dummy texture.png_0"
    },
    {
      "children": [
        14
      ],
      "name": "cube_5",
      "rotation": [
        -0.021685224026441574,
        0.00237491843290627,
        0.10884096473455429,
        0.9938197731971741
      ],
      "translation": [
        6.25,
        112.5,
        0.0
      ]
    },
    {
      "mesh": 3,
      "name": "cube_5_dummy texture.png_0"
    },
    {
      "children": [
        16,
        25
      ],
      "name": "Arms",
      "translation": [
        0.0,
        131.25,
        0.0
      ]
    },
    {
      "children": [
        17,
        19,
        21,
        23
      ],
      "name": "arm1",
      "rotation": [
        0.5702424645423889,
        -0.41811904311180115,
        -0.41811907291412354,
        0.5702424645423889
      ],
      "translation": [
        25.0,
        0.0,
        0.0
      ]
    },
    {
      "children": [
        18
      ],
      "name": "cube_4",
      "rotation": [
        -4.321380944337291e-18,
        -4.321375981253616e-18,
        0.7071068286895752,
        0.7071068286895752
      ],
      "translation": [
        18.75,
        0.0,
        6.25
      ]
    },
    {
      "mesh": 4,
      "name": "cube_4_dummy texture.png_0"
    },
    {
      "children": [
        20
      ],
      "name": "cube_6",
      "rotation": [
        8.84639720528257e-42,
        -6.1112343537795325e-18,
        1.4475660719677984e-24,
        1.0
      ],
      "translation": [
        18.75,
        0.0,
        6.25
      ]
    },
    {
      "mesh": 5,
      "name": "cube_6_dummy texture.png_0"
    },
    {
      "children": [
        22
      ],
      "name": "cube_7",
      "rotation": [
        8.84639720528257e-42,
        -6.1112343537795325e-18,
        1.4475660719677984e-24,
        1.0
      ],
      "translation": [
        18.75,
        0.0,
        6.25
      ]
    },
    {
      "mesh": 6,
      "name": "cube_7_dummy texture.png_0"
    },
    {
      "children": [
        24
      ],
      "name": "cube_8",
      "rotation": [
        8.84639720528257e-42,
        -6.1112343537795325e-18,
        1.4475660719677984e-24,
        1.0
      ],
      "translation": [
        18.75,
        0.0,
        6.25
      ]
    },
    {
      "mesh": 7,
      "name": "cube_8_dummy texture.png_0"
    },
    {
      "children": [
        26
      ],
      "name": "arm2",
      "translation": [
        -25.0,
        0.0,
        0.0
      ]
    },
    {
      "children": [
        27
      ],
      "name": "cube_3",
      "rotation": [
        0.0,
        -0.0,
        -0.15212339162826538,
        0.9883615374565125
      ],
      "translation": [
        0.0,
        -18.75,
        0.0
      ]
    },
    {
      "mesh": 8,
      "name": "cube_3_dummy texture.png_0"
    }
  ],
  "samplers": [
    {
      "magFilter": 9728,
      "minFilter": 9986,
      "wrapS": 10497,
      "wrapT": 10497
    }
  ],
  "scene": 0,
  "scenes": [
    {
      "name": "Sketchfab_Scene",
      "nodes": [
        0
      ]
    }
  ],
  "textures": [
    {
      "sampler": 0,
      "source": 0
    }
  ]
}
