{
  "accessors": [
    {
      "bufferView": 2,
      "componentType": 5126,
      "count": 48,
      "max": [
        10299.9814453125,
        -37271.1953125,
        267.32861328125
      ],
      "min": [
        10250.9228515625,
        -37293.32421875,
        -201.12806701660156
      ],
      "type": "VEC3"
    },
    {
      "bufferView": 2,
      "byteOffset": 576,
      "componentType": 5126,
      "count": 48,
      "max": [
        0.9999964833259583,
        0.9999964833259583,
        1.0
      ],
      "min": [
        -0.9999964833259583,
        -0.9999964833259583,
        -1.0
      ],
      "type": "VEC3"
    },
    {
      "bufferView": 1,
      "componentType": 5126,
      "count": 48,
      "max": [
        20.520883560180664,
        20.520883560180664
      ],
      "min": [
        -19.517810821533203,
        -2.715153932571411
      ],
      "type": "VEC2"
    },
    {
      "bufferView": 1,
      "byteOffset": 384,
      "componentType": 5126,
      "count": 48,
      "max": [
        20.520883560180664,
        20.520883560180664
      ],
      "min": [
        -19.517810821533203,
        -2.715153932571411
      ],
      "type": "VEC2"
    },
    {
      "bufferView": 1,
      "byteOffset": 768,
      "componentType": 5126,
      "count": 48,
      "max": [
        20.520883560180664,
        20.520883560180664
      ],
      "min": [
        -19.517810821533203,
        -2.715153932571411
      ],
      "type": "VEC2"
    },
    {
      "bufferView": 1,
      "byteOffset": 1152,
      "componentType": 5126,
      "count": 48,
      "max": [
        20.520883560180664,
        20.520883560180664
      ],
      "min": [
        -19.517810821533203,
        -2.715153932571411
      ],
      "type": "VEC2"
    },
    {
      "bufferView": 1,
      "byteOffset": 1536,
      "componentType": 5126,
      "count": 48,
      "max": [
        20.520883560180664,
        20.520883560180664
      ],
      "min": [
        -19.517810821533203,
        -2.715153932571411
      ],
      "type": "VEC2"
    },
    {
      "bufferView": 1,
      "byteOffset": 1920,
      "componentType": 5126,
      "count": 48,
      "max": [
        20.520883560180664,
        20.520883560180664
      ],
      "min": [
        -19.517810821533203,
        -2.715153932571411
      ],
      "type": "VEC2"
    },
    {
      "bufferView": 1,
      "byteOffset": 2304,
      "componentType": 5126,
      "count": 48,
      "max": [
        20.520883560180664,
        20.520883560180664
      ],
      "min": [
        -19.517810821533203,
        -2.715153932571411
      ],
      "type": "VEC2"
    },
    {
      "bufferView": 1,
      "byteOffset": 2688,
      "componentType": 5126,
      "count": 48,
      "max": [
        20.520883560180664,
        20.520883560180664
      ],
      "min": [
        -19.517810821533203,
        -2.715153932571411
      ],
      "type": "VEC2"
    },
    {
      "bufferView": 1,
      "byteOffset": 3072,
      "componentType": 5126,
      "count": 48,
      "max": [
        20.520883560180664,
        20.520883560180664
      ],
      "min": [
        -19.517810821533203,
        -2.715153932571411
      ],
      "type": "VEC2"
    },
    {
      "bufferView": 0,
      "componentType": 5125,
      "count": 84,
      "type": "SCALAR"
    },
    {
      "bufferView": 2,
      "byteOffset": 1152,
      "componentType": 5126,
      "count": 48,
      "max": [
        10298.0341796875,
        -36538.82421875,
        267.32861328125
      ],
      "min": [
        10248.9765625,
        -36560.953125,
        -201.12806701660156
      ],
      "type": "VEC3"
    },
    {
      "bufferView": 2,
      "byteOffset": 1728,
      "componentType": 5126,
      "count": 48,
      "max": [
        0.9999964833259583,
        0.9999964833259583,
        1.0
      ],
      "min": [
        -0.9999964833259583,
        -0.9999964833259583,
        -1.0
      ],
      "type": "VEC3"
    },
    {
      "bufferView": 1,
      "byteOffset": 3456,
      "componentType": 5126,
      "count": 48,
      "max": [
        20.52080535888672,
        20.52080535888672
      ],
      "min": [
        -19.51779556274414,
        -2.715153932571411
      ],
      "type": "VEC2"
    },
    {
      "bufferView": 1,
      "byteOffset": 3840,
      "componentType": 5126,
      "count": 48,
      "max": [
        20.52080535888672,
        20.52080535888672
      ],
      "min": [
        -19.51779556274414,
        -2.715153932571411
      ],
      "type": "VEC2"
    },
    {
      "bufferView": 1,
      "byteOffset": 4224,
      "componentType": 5126,
      "count": 48,
      "max": [
        20.52080535888672,
        20.52080535888672
      ],
      "min": [
        -19.51779556274414,
        -2.715153932571411
      ],
      "type": "VEC2"
    },
    {
      "bufferView": 1,
      "byteOffset": 4608,
      "componentType": 5126,
      "count": 48,
      "max": [
        20.52080535888672,
        20.52080535888672
      ],
      "min": [
        -19.51779556274414,
        -2.715153932571411
      ],
      "type": "VEC2"
    },
    {
      "bufferView": 1,
      "byteOffset": 4992,
      "componentType": 5126,
      "count": 48,
      "max": [
        20.52080535888672,
        20.52080535888672
      ],
      "min": [
        -19.51779556274414,
        -2.715153932571411
      ],
      "type": "VEC2"
    },
    {
      "bufferView": 1,
      "byteOffset": 5376,
      "componentType": 5126,
      "count": 48,
      "max": [
        20.52080535888672,
        20.52080535888672
      ],
      "min": [
        -19.51779556274414,
        -2.715153932571411
      ],
      "type": "VEC2"
    },
    {
      "bufferView": 1,
      "byteOffset": 5760,
      "componentType": 5126,
      "count": 48,
      "max": [
        20.52080535888672,
        20.52080535888672
      ],
      "min": [
        -19.51779556274414,
        -2.715153932571411
      ],
      "type": "VEC2"
    },
    {
      "bufferView": 1,
      "byteOffset": 6144,
      "componentType": 5126,
      "count": 48,
      "max": [
        20.52080535888672,
        20.52080535888672
      ],
      "min": [
        -19.51779556274414,
        -2.715153932571411
      ],
      "type": "VEC2"
    },
    {
      "bufferView": 1,
      "byteOffset": 6528,
      "componentType": 5126,
      "count": 48,
      "max": [
        20.52080535888672,
        20.52080535888672
      ],
      "min": [
        -19.51779556274414,
        -2.715153932571411
      ],
      "type": "VEC2"
    },
    {
      "bufferView": 0,
      "byteOffset": 336,
      "componentType": 5125,
      "count": 84,
      "type": "SCALAR"
    },
    {
      "bufferView": 2,
      "byteOffset": 2304,
      "componentType": 5126,
      "count": 24,
      "max": [
        10297.9755859375,
        -36540.828125,
        276.0
      ],
      "min": [
        10250.9814453125,
        -37291.3203125,
        186.0
      ],
      "type": "VEC3"
    },
    {
      "bufferView": 2,
      "byteOffset": 2592,
      "componentType": 5126,
      "count": 24,
      "max": [
        0.9999964833259583,
        0.9999964833259583,
        1.0
      ],
      "min": [
        -0.9999964833259583,
        -0.9999964833259583,
        -1.0
      ],
      "type": "VEC3"
    },
    {
      "bufferView": 1,
      "byteOffset": 6912,
      "componentType": 5126,
      "count": 24,
      "max": [
        1.7357996702194214,
        -0.20223966240882874
      ],
      "min": [
        -0.7357996106147766,
        -0.48017069697380066
      ],
      "type": "VEC2"
    },
    {
      "bufferView": 1,
      "byteOffset": 7104,
      "componentType": 5126,
      "count": 24,
      "max": [
        1.7357996702194214,
        -0.20223966240882874
      ],
      "min": [
        -0.7357996106147766,
        -0.48017069697380066
      ],
      "type": "VEC2"
    },
    {
      "bufferView": 1,
      "byteOffset": 7296,
      "componentType": 5126,
      "count": 24,
      "max": [
        1.7357996702194214,
        -0.20223966240882874
      ],
      "min": [
        -0.7357996106147766,
        -0.48017069697380066
      ],
      "type": "VEC2"
    },
    {
      "bufferView": 1,
      "byteOffset": 7488,
      "componentType": 5126,
      "count": 24,
      "max": [
        1.7357996702194214,
        -0.20223966240882874
      ],
      "min": [
        -0.7357996106147766,
        -0.48017069697380066
      ],
      "type": "VEC2"
    },
    {
      "bufferView": 1,
      "byteOffset": 7680,
      "componentType": 5126,
      "count": 24,
      "max": [
        1.7357996702194214,
        -0.20223966240882874
      ],
      "min": [
        -0.7357996106147766,
        -0.48017069697380066
      ],
      "type": "VEC2"
    },
    {
      "bufferView": 1,
      "byteOffset": 7872,
      "componentType": 5126,
      "count": 24,
      "max": [
        1.7357996702194214,
        -0.20223966240882874
      ],
      "min": [
        -0.7357996106147766,
        -0.48017069697380066
      ],
      "type": "VEC2"
    },
    {
      "bufferView": 1,
      "byteOffset": 8064,
      "componentType": 5126,
      "count": 24,
      "max": [
        1.7357996702194214,
        -0.20223966240882874
      ],
      "min": [
        -0.7357996106147766,
        -0.48017069697380066
      ],
      "type": "VEC2"
    },
    {
      "bufferView": 1,
      "byteOffset": 8256,
      "componentType": 5126,
      "count": 24,
      "max": [
        1.7357996702194214,
        -0.20223966240882874
      ],
      "min": [
        -0.7357996106147766,
        -0.48017069697380066
      ],
      "type": "VEC2"
    },
    {
      "bufferView": 1,
      "byteOffset": 8448,
      "componentType": 5126,
      "count": 24,
      "max": [
        1.7357996702194214,
        -0.20223966240882874
      ],
      "min": [
        -0.7357996106147766,
        -0.48017069697380066
      ],
      "type": "VEC2"
    },
    {
      "bufferView": 0,
      "byteOffset": 672,
      "componentType": 5125,
      "count": 36,
      "type": "SCALAR"
    },
    {
      "bufferView": 2,
      "byteOffset": 2880,
      "componentType": 5126,
      "count": 24,
      "max": [
        10297.9755859375,
        -36540.828125,
        184.0
      ],
      "min": [
        10250.9814453125,
        -37291.3203125,
        94.0
      ],
      "type": "VEC3"
    },
    {
      "bufferView": 2,
      "byteOffset": 3168,
      "componentType": 5126,
      "count": 24,
      "max": [
        0.9999964833259583,
        0.9999964833259583,
        1.0
      ],
      "min": [
        -0.9999964833259583,
        -0.9999964833259583,
        -1.0
      ],
      "type": "VEC3"
    },
    {
      "bufferView": 1,
      "byteOffset": 8640,
      "componentType": 5126,
      "count": 24,
      "max": [
        1.4606343507766724,
        1.0002319812774658
      ],
      "min": [
        -0.46039867401123047,
        -0.46063438057899475
      ],
      "type": "VEC2"
    },
    {
      "bufferView": 1,
      "byteOffset": 8832,
      "componentType": 5126,
      "count": 24,
      "max": [
        1.4606343507766724,
        1.0002319812774658
      ],
      "min": [
        -0.46039867401123047,
        -0.46063438057899475
      ],
      "type": "VEC2"
    },
    {
      "bufferView": 1,
      "byteOffset": 9024,
      "componentType": 5126,
      "count": 24,
      "max": [
        1.4606343507766724,
        1.0002319812774658
      ],
      "min": [
        -0.46039867401123047,
        -0.46063438057899475
      ],
      "type": "VEC2"
    },
    {
      "bufferView": 1,
      "byteOffset": 9216,
      "componentType": 5126,
      "count": 24,
      "max": [
        1.4606343507766724,
        1.0002319812774658
      ],
      "min": [
        -0.46039867401123047,
        -0.46063438057899475
      ],
      "type": "VEC2"
    },
    {
      "bufferView": 1,
      "byteOffset": 9408,
      "componentType": 5126,
      "count": 24,
      "max": [
        1.4606343507766724,
        1.0002319812774658
      ],
      "min": [
        -0.46039867401123047,
        -0.46063438057899475
      ],
      "type": "VEC2"
    },
    {
      "bufferView": 1,
      "byteOffset": 9600,
      "componentType": 5126,
      "count": 24,
      "max": [
        1.4606343507766724,
        1.0002319812774658
      ],
      "min": [
        -0.46039867401123047,
        -0.46063438057899475
      ],
      "type": "VEC2"
    },
    {
      "bufferView": 1,
      "byteOffset": 9792,
      "componentType": 5126,
      "count": 24,
      "max": [
        1.4606343507766724,
        1.0002319812774658
      ],
      "min": [
        -0.46039867401123047,
        -0.46063438057899475
      ],
      "type": "VEC2"
    },
    {
      "bufferView": 1,
      "byteOffset": 9984,
      "componentType": 5126,
      "count": 24,
      "max": [
        1.4606343507766724,
        1.0002319812774658
      ],
      "min": [
        -0.46039867401123047,
        -0.46063438057899475
      ],
      "type": "VEC2"
    },
    {
      "bufferView": 1,
      "byteOffset": 10176,
      "componentType": 5126,
      "count": 24,
      "max": [
        1.4606343507766724,
        1.0002319812774658
      ],
      "min": [
        -0.46039867401123047,
        -0.46063438057899475
      ],
      "type": "VEC2"
    },
    {
      "bufferView": 0,
      "byteOffset": 816,
      "componentType": 5125,
      "count": 36,
      "type": "SCALAR"
    },
    {
      "bufferView": 2,
      "byteOffset": 3456,
      "componentType": 5126,
      "count": 24,
      "max": [
        10297.9755859375,
        -36540.828125,
        92.0
      ],
      "min": [
        10250.9814453125,
        -37291.3203125,
        2.0
      ],
      "type": "VEC3"
    },
    {
      "bufferView": 2,
      "byteOffset": 3744,
      "componentType": 5126,
      "count": 24,
      "max": [
        0.9999964833259583,
        0.9999964833259583,
        1.0
      ],
      "min": [
        -0.9999964833259583,
        -0.9999964833259583,
        -1.0
      ],
      "type": "VEC3"
    },
    {
      "bufferView": 1,
      "byteOffset": 10368,
      "componentType": 5126,
      "count": 24,
      "max": [
        1.5431923866271973,
        2.0427160263061523
      ],
      "min": [
        -0.5431923866271973,
        -0.27684950828552246
      ],
      "type": "VEC2"
    },
    {
      "bufferView": 1,
      "byteOffset": 10560,
      "componentType": 5126,
      "count": 24,
      "max": [
        1.5431923866271973,
        2.0427160263061523
      ],
      "min": [
        -0.5431923866271973,
        -0.27684950828552246
      ],
      "type": "VEC2"
    },
    {
      "bufferView": 1,
      "byteOffset": 10752,
      "componentType": 5126,
      "count": 24,
      "max": [
        1.5431923866271973,
        2.0427160263061523
      ],
      "min": [
        -0.5431923866271973,
        -0.27684950828552246
      ],
      "type": "VEC2"
    },
    {
      "bufferView": 1,
      "byteOffset": 10944,
      "componentType": 5126,
      "count": 24,
      "max": [
        1.5431923866271973,
        2.0427160263061523
      ],
      "min": [
        -0.5431923866271973,
        -0.27684950828552246
      ],
      "type": "VEC2"
    },
    {
      "bufferView": 1,
      "byteOffset": 11136,
      "componentType": 5126,
      "count": 24,
      "max": [
        1.5431923866271973,
        2.0427160263061523
      ],
      "min": [
        -0.5431923866271973,
        -0.27684950828552246
      ],
      "type": "VEC2"
    },
    {
      "bufferView": 1,
      "byteOffset": 11328,
      "componentType": 5126,
      "count": 24,
      "max": [
        1.5431923866271973,
        2.0427160263061523
      ],
      "min": [
        -0.5431923866271973,
        -0.27684950828552246
      ],
      "type": "VEC2"
    },
    {
      "bufferView": 1,
      "byteOffset": 11520,
      "componentType": 5126,
      "count": 24,
      "max": [
        1.5431923866271973,
        2.0427160263061523
      ],
      "min": [
        -0.5431923866271973,
        -0.27684950828552246
      ],
      "type": "VEC2"
    },
    {
      "bufferView": 1,
      "byteOffset": 11712,
      "componentType": 5126,
      "count": 24,
      "max": [
        1.5431923866271973,
        2.0427160263061523
      ],
      "min": [
        -0.5431923866271973,
        -0.27684950828552246
      ],
      "type": "VEC2"
    },
    {
      "bufferView": 1,
      "byteOffset": 11904,
      "componentType": 5126,
      "count": 24,
      "max": [
        1.5431923866271973,
        2.0427160263061523
      ],
      "min": [
        -0.5431923866271973,
        -0.27684950828552246
      ],
      "type": "VEC2"
    },
    {
      "bufferView": 0,
      "byteOffset": 960,
      "componentType": 5125,
      "count": 36,
      "type": "SCALAR"
    },
    {
      "bufferView": 2,
      "byteOffset": 4032,
      "componentType": 5126,
      "count": 24,
      "max": [
        10297.9755859375,
        -36540.828125,
        0.0
      ],
      "min": [
        10250.9814453125,
        -37291.3203125,
        -90.0
      ],
      "type": "VEC3"
    },
    {
      "bufferView": 2,
      "byteOffset": 4320,
      "componentType": 5126,
      "count": 24,
      "max": [
        0.9999964833259583,
        0.9999964833259583,
        1.0
      ],
      "min": [
        -0.9999964833259583,
        -0.9999964833259583,
        -1.0
      ],
      "type": "VEC3"
    },
    {
      "bufferView": 1,
      "byteOffset": 12096,
      "componentType": 5126,
      "count": 24,
      "max": [
        1.4710068702697754,
        0.10602746903896332
      ],
      "min": [
        -0.4710068106651306,
        -0.1122448742389679
      ],
      "type": "VEC2"
    },
    {
      "bufferView": 1,
      "byteOffset": 12288,
      "componentType": 5126,
      "count": 24,
      "max": [
        1.4710068702697754,
        0.10602746903896332
      ],
      "min": [
        -0.4710068106651306,
        -0.1122448742389679
      ],
      "type": "VEC2"
    },
    {
      "bufferView": 1,
      "byteOffset": 12480,
      "componentType": 5126,
      "count": 24,
      "max": [
        1.4710068702697754,
        0.10602746903896332
      ],
      "min": [
        -0.4710068106651306,
        -0.1122448742389679
      ],
      "type": "VEC2"
    },
    {
      "bufferView": 1,
      "byteOffset": 12672,
      "componentType": 5126,
      "count": 24,
      "max": [
        1.4710068702697754,
        0.10602746903896332
      ],
      "min": [
        -0.4710068106651306,
        -0.1122448742389679
      ],
      "type": "VEC2"
    },
    {
      "bufferView": 1,
      "byteOffset": 12864,
      "componentType": 5126,
      "count": 24,
      "max": [
        1.4710068702697754,
        0.10602746903896332
      ],
      "min": [
        -0.4710068106651306,
        -0.1122448742389679
      ],
      "type": "VEC2"
    },
    {
      "bufferView": 1,
      "byteOffset": 13056,
      "componentType": 5126,
      "count": 24,
      "max": [
        1.4710068702697754,
        0.10602746903896332
      ],
      "min": [
        -0.4710068106651306,
        -0.1122448742389679
      ],
      "type": "VEC2"
    },
    {
      "bufferView": 1,
      "byteOffset": 13248,
      "componentType": 5126,
      "count": 24,
      "max": [
        1.4710068702697754,
        0.10602746903896332
      ],
      "min": [
        -0.4710068106651306,
        -0.1122448742389679
      ],
      "type": "VEC2"
    },
    {
      "bufferView": 1,
      "byteOffset": 13440,
      "componentType": 5126,
      "count": 24,
      "max": [
        1.4710068702697754,
        0.10602746903896332
      ],
      "min": [
        -0.4710068106651306,
        -0.1122448742389679
      ],
      "type": "VEC2"
    },
    {
      "bufferView": 1,
      "byteOffset": 13632,
      "componentType": 5126,
      "count": 24,
      "max": [
        1.4710068702697754,
        0.10602746903896332
      ],
      "min": [
        -0.4710068106651306,
        -0.1122448742389679
      ],
      "type": "VEC2"
    },
    {
      "bufferView": 0,
      "byteOffset": 1104,
      "componentType": 5125,
      "count": 36,
      "type": "SCALAR"
    }
  ],
  "asset": {
    "extras": {
      "author": "agrant2 (https://sketchfab.com/agrant2)",
      "license": "CC-BY-4.0 (http://creativecommons.org/licenses/by/4.0/)",
      "source": "https://sketchfab.com/3d-models/concrete-sleeper-retaining-wall-bcaadd18d8b94e91a5f9d8ff39dc9b79",
      "title": "Concrete Sleeper Retaining Wall"
    },
    "generator": "Sketchfab-12.68.0",
    "version": "2.0"
  },
  "bufferViews": [
    {
      "buffer": 0,
      "byteLength": 1248,
      "name": "floatBufferViews",
      "target": 34963
    },
    {
      "buffer": 0,
      "byteLength": 13824,
      "byteOffset": 1248,
      "byteStride": 8,
      "name": "floatBufferViews",
      "target": 34962
    },
    {
      "buffer": 0,
      "byteLength": 4608,
      "byteOffset": 15072,
      "byteStride": 12,
      "name": "floatBufferViews",
      "target": 34962
    }
  ],
  "buffers": [
    {
      "byteLength": 19680,
      "uri": "scene.bin"
    }
  ],
  "images": [
    {
      "uri": "textures/Metal_Weathered_Q01_20cm_baseColor.jpeg"
    },
    {
      "uri": "textures/Metal_Weathered_Q01_20cm_metallicRoughness.png"
    },
    {
      "uri": "textures/Concrete_Flooring_H01_2m_baseColor.jpeg"
    },
    {
      "uri": "textures/Concrete_Flooring_H01_2m_metallicRoughness.png"
    }
  ],
  "materials": [
    {
      "doubleSided": true,
      "name": "Metal_Weathered_Q01_20cm",
      "pbrMetallicRoughness": {
        "baseColorTexture": {
          "index": 0
        },
        "metallicFactor": 0.0,
        "metallicRoughnessTexture": {
          "index": 1
        }
      }
    },
    {
      "doubleSided": true,
      "name": "Concrete_Flooring_H01_2m",
      "pbrMetallicRoughness": {
        "baseColorTexture": {
          "index": 2
        },
        "metallicFactor": 0.8331714929770148,
        "metallicRoughnessTexture": {
          "index": 3
        }
      }
    }
  ],
  "meshes": [
    {
      "name": "Object_1_/Metal_Weathered_Q01_20cm_0",
      "primitives": [
        {
          "attributes": {
            "NORMAL": 1,
            "POSITION": 0,
            "TEXCOORD_0": 2,
            "TEXCOORD_1": 3,
            "TEXCOORD_2": 4,
            "TEXCOORD_3": 5,
            "TEXCOORD_4": 6,
            "TEXCOORD_5": 7,
            "TEXCOORD_6": 8,
            "TEXCOORD_7": 9,
            "TEXCOORD_8": 10
          },
          "indices": 11,
          "material": 0,
          "mode": 4
        }
      ]
    },
    {
      "name": "Object_2_/Metal_Weathered_Q01_20cm_0",
      "primitives": [
        {
          "attributes": {
            "NORMAL": 13,
            "POSITION": 12,
            "TEXCOORD_0": 14,
            "TEXCOORD_1": 15,
            "TEXCOORD_2": 16,
            "TEXCOORD_3": 17,
            "TEXCOORD_4": 18,
            "TEXCOORD_5": 19,
            "TEXCOORD_6": 20,
            "TEXCOORD_7": 21,
            "TEXCOORD_8": 22
          },
          "indices": 23,
          "material": 0,
          "mode": 4
        }
      ]
    },
    {
      "name": "Object_3_/Concrete_Flooring_H01_2m_0",
      "primitives": [
        {
          "attributes": {
            "NORMAL": 25,
            "POSITION": 24,
            "TEXCOORD_0": 26,
            "TEXCOORD_1": 27,
            "TEXCOORD_2": 28,
            "TEXCOORD_3": 29,
            "TEXCOORD_4": 30,
            "TEXCOORD_5": 31,
            "TEXCOORD_6": 32,
            "TEXCOORD_7": 33,
            "TEXCOORD_8": 34
          },
          "indices": 35,
          "material": 1,
          "mode": 4
        }
      ]
    },
    {
      "name": "Object_4_/Concrete_Flooring_H01_2m_0",
      "primitives": [
        {
          "attributes": {
            "NORMAL": 37,
            "POSITION": 36,
            "TEXCOORD_0": 38,
            "TEXCOORD_1": 39,
            "TEXCOORD_2": 40,
            "TEXCOORD_3": 41,
            "TEXCOORD_4": 42,
            "TEXCOORD_5": 43,
            "TEXCOORD_6": 44,
            "TEXCOORD_7": 45,
            "TEXCOORD_8": 46
          },
          "indices": 47,
          "material": 1,
          "mode": 4
        }
      ]
    },
    {
      "name": "Object_5_/Concrete_Flooring_H01_2m_0",
      "primitives": [
        {
          "attributes": {
            "NORMAL": 49,
            "POSITION": 48,
            "TEXCOORD_0": 50,
            "TEXCOORD_1": 51,
            "TEXCOORD_2": 52,
            "TEXCOORD_3": 53,
            "TEXCOORD_4": 54,
            "TEXCOORD_5": 55,
            "TEXCOORD_6": 56,
            "TEXCOORD_7": 57,
            "TEXCOORD_8": 58
          },
          "indices": 59,
          "material": 1,
          "mode": 4
        }
      ]
    },
    {
      "name": "Object_6_/Concrete_Flooring_H01_2m_0",
      "primitives": [
        {
          "attributes": {
            "NORMAL": 61,
            "POSITION": 60,
            "TEXCOORD_0": 62,
            "TEXCOORD_1": 63,
            "TEXCOORD_2": 64,
            "TEXCOORD_3": 65,
            "TEXCOORD_4": 66,
            "TEXCOORD_5": 67,
            "TEXCOORD_6": 68,
            "TEXCOORD_7": 69,
            "TEXCOORD_8": 70
          },
          "indices": 71,
          "material": 1,
          "mode": 4
        }
      ]
    }
  ],
  "nodes": [
    {
      "children": [
        1
      ],
      "matrix": [
        1.0,
        -2.8327693431939995e-16,
        2.8327693431939985e-16,
        0.0,
        -2.832769343193999e-16,
        -2.2204460492503126e-16,
        1.0,
        0.0,
        -2.832769343193999e-16,
        -1.0,
        -2.2204460492503136e-16,
        0.0,
        1.0913936421275139e-11,
        -74.87193298338204,
        -73832.15625,
        1.0
      ],
      "name": "Sketchfab_model"
    },
    {
      "children": [
        2
      ],
      "matrix": [
        1.0,
        0.0,
        0.0,
        0.0,
        0.0,
        -1.0,
        0.0,
        0.0,
        0.0,
        0.0,
        -1.0,
        0.0,
        0.0,
        0.0,
        0.0,
        1.0
      ],
      "name": "4e14ed959c26463b830d4c1951978e4c.fbx"
    },
    {
      "children": [
        3,
        16,
        18,
        20,
        22,
        24,
        26,
        28
      ],
      "name": "RootNode"
    },
    {
      "children": [
        4,
        6,
        8,
        10,
        12,
        14
      ],
      "name": "Default"
    },
    {
      "children": [
        5
      ],
      "name": "Object_1"
    },
    {
      "mesh": 0,
      "name": "Object_1_/Metal_Weathered_Q01_20cm_0"
    },
    {
      "children": [
        7
      ],
      "name": "Object_2"
    },
    {
      "mesh": 1,
      "name": "Object_2_/Metal_Weathered_Q01_20cm_0"
    },
    {
      "children": [
        9
      ],
      "name": "Object_3"
    },
    {
      "mesh": 2,
      "name": "Object_3_/Concrete_Flooring_H01_2m_0"
    },
    {
      "children": [
        11
      ],
      "name": "Object_4"
    },
    {
      "mesh": 3,
      "name": "Object_4_/Concrete_Flooring_H01_2m_0"
    },
    {
      "children": [
        13
      ],
      "name": "Object_5"
    },
    {
      "mesh": 4,
      "name": "Object_5_/Concrete_Flooring_H01_2m_0"
    },
    {
      "children": [
        15
      ],
      "name": "Object_6"
    },
    {
      "mesh": 5,
      "name": "Object_6_/Concrete_Flooring_H01_2m_0"
    },
    {
      "children": [
        17
      ],
      "matrix": [
        0.6257512097699357,
        0.6876916003428921,
        -0.36812455268467753,
        0.0,
        -0.6876916003428921,
        0.7091069443220084,
        0.1557164228080518,
        0.0,
        0.3681245526846774,
        0.15571642280805198,
        0.9166442654479272,
        0.0,
        9107.15234375,
        -38044.42578125,
        704.050048828125,
        1.0
      ],
      "name": "Top"
    },
    {
      "name": "Object_17"
    },
    {
      "children": [
        19
      ],
      "matrix": [
        2.220446049250313e-16,
        0.0,
        -1.0,
        0.0,
        0.0,
        1.0,
        0.0,
        0.0,
        1.0,
        0.0,
        2.220446049250313e-16,
        0.0,
        -73017.96875,
        -35397.86328125,
        11156.515625,
        1.0
      ],
      "name": "Top_2"
    },
    {
      "name": "Object_19"
    },
    {
      "children": [
        21
      ],
      "matrix": [
        2.220446049250313e-16,
        1.0,
        0.0,
        0.0,
        -1.0,
        2.220446049250313e-16,
        0.0,
        0.0,
        0.0,
        0.0,
        1.0,
        0.0,
        0.0,
        -69407.6328125,
        0.0,
        1.0
      ],
      "name": "Front"
    },
    {
      "name": "Object_21"
    },
    {
      "children": [
        23
      ],
      "matrix": [
        -0.09862353520180411,
        0.8523783084633405,
        -0.5135412520581701,
        0.0,
        -0.8523783084633405,
        0.19395634442098686,
        0.48562553034207545,
        0.0,
        0.5135412520581701,
        0.48562553034207534,
        0.707420120377209,
        0.0,
        -78879.0078125,
        -37405.22265625,
        2861.5029296875,
        1.0
      ],
      "name": "06"
    },
    {
      "name": "Object_23"
    },
    {
      "children": [
        25
      ],
      "matrix": [
        -0.2988932336769201,
        -0.009393098280089869,
        -0.9542403285162782,
        0.0,
        0.009393098280090018,
        0.9998741556927739,
        -0.012784462537119881,
        0.0,
        0.9542403285162782,
        -0.012784462537119989,
        -0.29876738936969405,
        0.0,
        74798.265625,
        -20917.337890625,
        3134.374267578125,
        1.0
      ],
      "name": "streth"
    },
    {
      "name": "Object_25"
    },
    {
      "children": [
        27
      ],
      "matrix": [
        0.5773502691896256,
        -0.5773502691896257,
        -0.5773502691896258,
        0.0,
        0.5773502691896257,
        0.7886751345948129,
        -0.21132486540518713,
        0.0,
        0.5773502691896258,
        -0.2113248654051872,
        0.7886751345948128,
        0.0,
        -35977.30078125,
        456.5611572265625,
        38162.49609375,
        1.0
      ],
      "name": "Nw1"
    },
    {
      "name": "Object_27"
    },
    {
      "children": [
        29
      ],
      "matrix": [
        -0.09862353520180411,
        0.8523783084633405,
        -0.5135412520581701,
        0.0,
        -0.8523783084633405,
        0.19395634442098686,
        0.48562553034207545,
        0.0,
        0.5135412520581701,
        0.48562553034207534,
        0.707420120377209,
        0.0,
        -78879.0078125,
        -37405.22265625,
        2861.5029296875,
        1.0
      ],
      "name": "06_2"
    },
    {
      "name": "Object_29"
    }
  ],
  "samplers": [
    {
      "magFilter": 9729,
      "minFilter": 9987,
      "wrapS": 10497,
      "wrapT": 10497
    }
  ],
  "scene": 0,
  "scenes": [
    {
      "name": "Sketchfab_Scene",
      "nodes": [
        0
      ]
    }
  ],
  "textures": [
    {
      "sampler": 0,
      "source": 0
    },
    {
      "sampler": 0,
      "source": 1
    },
    {
      "sampler": 0,
      "source": 2
    },
    {
      "sampler": 0,
      "source": 3
    }
  ]
}
